<?xml version="1.0" encoding="UTF-8"?>
<svg width="265px" height="249px" viewBox="0 0 265 249" version="1.1" xmlns="http://www.w3.org/2000/svg" xmlns:xlink="http://www.w3.org/1999/xlink">
    <!-- Generator: Sketch 54.1 (76490) - https://sketchapp.com -->
    <title>Group 28</title>
    <desc>Created with Sketch.</desc>
    <g id="Page-1" stroke="none" stroke-width="1" fill="none" fill-rule="evenodd">
        <g id="Group-28">
            <rect id="Rectangle" stroke="#D8D8D8" fill="#EAEAEA" x="0.5" y="0.5" width="264" height="248" rx="8"></rect>
            <g id="Group-27-Copy" transform="translate(5.000000, 5.000000)">
                <g id="Group-24-Copy-2" transform="translate(65.050000, 0.000000)">
                    <g id="Ghost_2">
                        <g id="Group-20" transform="translate(23.214286, 42.971530)">
                            <ellipse id="Oval-Copy-5" fill="#000000" cx="62.4468537" cy="21.1743772" rx="4.9957483" ry="6.22775801"></ellipse>
                            <ellipse id="Oval" fill="#000000" cx="20.482568" cy="21.1743772" rx="4.9957483" ry="6.22775801"></ellipse>
                            <g id="Group-19" stroke="#000000">
                                <path d="M62.4468537,19.5216367 C69.3445427,19.5216367 74.9362245,24.1681344 74.9362245,15.569395 C74.9362245,6.97065559 69.3445427,-1.03028697e-13 62.4468537,-1.03028697e-13 C55.5491647,-1.03028697e-13 49.957483,6.97065559 49.957483,15.569395 C49.957483,24.1681344 55.5491647,19.5216367 62.4468537,19.5216367 Z" id="Oval" stroke-width="3" fill="#D8D8D8"></path>
                                <path d="M20.482568,19.447762 C27.380257,19.447762 32.9719388,23.9920259 32.9719388,15.4559438 C32.9719388,6.91986175 27.380257,1.77635684e-14 20.482568,1.77635684e-14 C13.584879,1.77635684e-14 7.99319728,6.91986175 7.99319728,15.4559438 C7.99319728,23.9920259 13.584879,19.447762 20.482568,19.447762 Z" id="Oval-Copy-4" stroke-width="3" fill="#D8D8D8"></path>
                                <path d="M83.678784,19.5216367 L0.249787415,19.5216367" id="Line" stroke-width="7" stroke-linecap="square"></path>
                            </g>
                        </g>
                        <g id="ghost" fill="#000000" fill-rule="nonzero">
                            <path d="M60.5794271,0.0302677515 C26.3704427,1.10693621 0,32.4431152 0,68.3764976 L0,158.584224 C0,163.458285 5.60872396,165.895316 8.88997396,162.449977 L17.0019531,156.116432 C19.1699219,154.424524 22.2102865,154.752652 24.0039062,156.871809 L37.985026,173.397815 C40.0195312,175.534062 43.3170573,175.534062 45.3515625,173.397815 L58.6067708,157.726307 C60.6803385,155.275605 64.3229167,155.275605 66.3932292,157.726307 L79.6484375,173.397815 C81.6829427,175.534062 84.9804688,175.534062 87.014974,173.397815 L100.996094,156.871809 C102.789714,154.752652 105.830078,154.421106 107.998047,156.116432 L116.110026,162.449977 C119.391276,165.895316 125,163.454867 125,158.584224 L125,65.6250116 C125,28.7106646 95.9733073,-1.08399865 60.5794271,0.0302677515 Z M41.6666667,76.5625959 C35.9147135,76.5625959 31.25,71.6646089 31.25,65.6250116 C31.25,59.5854142 35.9147135,54.6874273 41.6666667,54.6874273 C47.4186198,54.6874273 52.0833333,59.5854142 52.0833333,65.6250116 C52.0833333,71.6646089 47.4186198,76.5625959 41.6666667,76.5625959 Z M83.3333333,76.5625959 C77.5813802,76.5625959 72.9166667,71.6646089 72.9166667,65.6250116 C72.9166667,59.5854142 77.5813802,54.6874273 83.3333333,54.6874273 C89.0852865,54.6874273 93.75,59.5854142 93.75,65.6250116 C93.75,71.6646089 89.0852865,76.5625959 83.3333333,76.5625959 Z" id="Shape"></path>
                        </g>
                    </g>
                    <rect id="Rectangle" fill="#D8D8D8" x="25.625" y="96.7272727" width="31.25" height="6.36363636" rx="3.18181818"></rect>
                </g>
                <path d="M29.4,205.3 C24.599976,203.849993 21.0875111,203.125 18.8625,203.125 C16.6374889,203.125 15.1125041,204.09999 14.2875,206.05 C13.4624959,208.00001 13.05,211.087479 13.05,215.3125 C13.05,219.537521 13.4374961,222.61249 14.2125,224.5375 C14.9875039,226.46251 16.574988,227.425 18.975,227.425 C19.6750035,227.425 21.02499,227.225002 23.025,226.825 L23.025,221.125 L19.65,221.125 L19.65,212.275 L33.975,212.275 L33.975,238 L25.125,238 L23.925,235.6 L23.625,235.6 C22.7749957,236.300004 22.1000025,236.824998 21.6,237.175 C20.199993,238.225005 18.2250127,238.75 15.675,238.75 C5.22494775,238.75 0,230.850079 0,215.05 C0,207.14996 1.37498625,201.112521 4.125,196.9375 C6.87501375,192.762479 11.4999675,190.675 18,190.675 C23.200026,190.675 27.6749812,191.474992 31.425,193.075 L29.4,205.3 Z M52.05,204.7 C54.8000137,202.349988 57.774984,201.175 60.975,201.175 C64.175016,201.175 66.4374934,201.937492 67.7625,203.4625 C69.0875066,204.987508 69.75,207.274985 69.75,210.325 L69.75,238 L57,238 L57,214.6 C57,213.349994 56.4500055,212.725 55.35,212.725 C53.949993,212.725 52.7750047,213.074997 51.825,213.775 L51.825,238 L39.225,238 L39.225,189.925 L51.75,189.925 L51.75,204.7 L52.05,204.7 Z M73.65,219.925 C73.65,213.324967 74.9124874,208.550015 77.4375,205.6 C79.9625126,202.649985 83.9124731,201.175 89.2875,201.175 C94.6625269,201.175 98.5749877,202.624986 101.025,205.525 C103.475012,208.425015 104.7,213.187467 104.7,219.8125 C104.7,226.437533 103.500012,231.249985 101.1,234.25 C98.699988,237.250015 94.7750272,238.75 89.325,238.75 C83.8749727,238.75 79.9000125,237.250015 77.4,234.25 C74.8999875,231.249985 73.65,226.475033 73.65,219.925 Z M91.65,212.8 C91.3499985,211.799995 90.5500065,211.3 89.25,211.3 C87.9499935,211.3 87.1250017,211.799995 86.775,212.8 C86.4249982,213.800005 86.25,215.899984 86.25,219.1 L86.25,220.9 C86.25,224.450018 86.4249982,226.749995 86.775,227.8 C87.1250017,228.850005 87.9374936,229.375 89.2125,229.375 C90.4875064,229.375 91.2999982,228.850005 91.65,227.8 C92.0000017,226.749995 92.175,224.600016 92.175,221.35 L92.175,219.175 C92.175,215.924984 92.0000017,213.800005 91.65,212.8 Z M106.65,212.725 C106.65,209.074982 107.762489,206.23751 109.9875,204.2125 C112.212511,202.18749 115.27498,201.175 119.175,201.175 C123.07502,201.175 127.02498,201.674995 131.025,202.675 L129.75,213.1 C124.649974,211.949994 121.225009,211.375 119.475,211.375 C118.424995,211.375 117.9,211.799996 117.9,212.65 C117.9,213.200003 118.474994,213.699998 119.625,214.15 C123.62502,215.600007 126.63749,217.249991 128.6625,219.1 C130.68751,220.950009 131.7,223.724982 131.7,227.425 C131.7,231.125018 130.75001,233.93749 128.85,235.8625 C126.94999,237.78751 124.03752,238.75 120.1125,238.75 C116.18748,238.75 112.27502,238.250005 108.375,237.25 L109.2,227.125 C114.200025,228.475007 117.437493,229.15 118.9125,229.15 C120.387507,229.15 121.125,228.800004 121.125,228.1 C121.125,227.399996 120.575006,226.850002 119.475,226.45 C115.024978,224.749991 111.77501,222.93751 109.725,221.0125 C107.67499,219.08749 106.65,216.325018 106.65,212.725 Z M154.5,238.075 C150.799982,238.525002 147.587514,238.75 144.8625,238.75 C142.137486,238.75 140.012508,238.037507 138.4875,236.6125 C136.962492,235.187493 136.2,232.725017 136.2,229.225 L136.2,211.825 L132.6,211.825 L132.6,202.525 L136.8,202.525 L137.475,195.625 L148.8,195.625 L148.8,202.525 L155.475,202.525 L154.95,211.825 L148.725,211.825 L148.725,226.75 C148.725,227.800005 149.224995,228.325 150.225,228.325 C150.325001,228.325 151.874985,228.250001 154.875,228.1 L154.5,238.075 Z M161.4,232.9 C161.4,230.89999 161.924995,229.412505 162.975,228.4375 C164.025005,227.462495 165.699989,226.975 168,226.975 C170.300012,226.975 171.974995,227.462495 173.025,228.4375 C174.075005,229.412505 174.6,230.949989 174.6,233.05 C174.6,236.900019 172.400022,238.825 168,238.825 C163.599978,238.825 161.4,236.85002 161.4,232.9 Z M195.9,212.125 C194.449993,212.125 193.475003,212.787493 192.975,214.1125 C192.474997,215.437507 192.225,217.499986 192.225,220.3 C192.225,223.100014 192.462498,225.124994 192.9375,226.375 C193.412502,227.625006 194.412492,228.25 195.9375,228.25 C197.462508,228.25 199.449988,227.975003 201.9,227.425 L203.25,237.025 C199.799983,238.175006 196.725013,238.75 194.025,238.75 C189.274976,238.75 185.687512,237.150016 183.2625,233.95 C180.837488,230.749984 179.625,226.275029 179.625,220.525 C179.625,214.774971 180.874987,210.112518 183.375,206.5375 C185.875012,202.962482 189.499976,201.175 194.25,201.175 C197.800018,201.175 200.999986,201.774994 203.85,202.975 L202.5,214 C199.599986,212.749994 197.400008,212.125 195.9,212.125 Z M204.15,212.725 C204.15,209.074982 205.262489,206.23751 207.4875,204.2125 C209.712511,202.18749 212.77498,201.175 216.675,201.175 C220.57502,201.175 224.52498,201.674995 228.525,202.675 L227.25,213.1 C222.149975,211.949994 218.725009,211.375 216.975,211.375 C215.924995,211.375 215.4,211.799996 215.4,212.65 C215.4,213.200003 215.974994,213.699998 217.125,214.15 C221.12502,215.600007 224.13749,217.249991 226.1625,219.1 C228.18751,220.950009 229.2,223.724982 229.2,227.425 C229.2,231.125018 228.25001,233.93749 226.35,235.8625 C224.449991,237.78751 221.53752,238.75 217.6125,238.75 C213.68748,238.75 209.77502,238.250005 205.875,237.25 L206.7,227.125 C211.700025,228.475007 214.937493,229.15 216.4125,229.15 C217.887507,229.15 218.625,228.800004 218.625,228.1 C218.625,227.399996 218.075006,226.850002 216.975,226.45 C212.524978,224.749991 209.27501,222.93751 207.225,221.0125 C205.17499,219.08749 204.15,216.325018 204.15,212.725 Z M229.8,212.725 C229.8,209.074982 230.912489,206.23751 233.1375,204.2125 C235.362511,202.18749 238.42498,201.175 242.325,201.175 C246.225019,201.175 250.17498,201.674995 254.175,202.675 L252.9,213.1 C247.799974,211.949994 244.375009,211.375 242.625,211.375 C241.574995,211.375 241.05,211.799996 241.05,212.65 C241.05,213.200003 241.624994,213.699998 242.775,214.15 C246.77502,215.600007 249.78749,217.249991 251.8125,219.1 C253.83751,220.950009 254.85,223.724982 254.85,227.425 C254.85,231.125018 253.90001,233.93749 252,235.8625 C250.09999,237.78751 247.18752,238.75 243.2625,238.75 C239.33748,238.75 235.42502,238.250005 231.525,237.25 L232.35,227.125 C237.350025,228.475007 240.587493,229.15 242.0625,229.15 C243.537507,229.15 244.275,228.800004 244.275,228.1 C244.275,227.399996 243.725006,226.850002 242.625,226.45 C238.174978,224.749991 234.92501,222.93751 232.875,221.0125 C230.82499,219.08749 229.8,216.325018 229.8,212.725 Z" id="Ghost.css" fill="#000000" fill-rule="nonzero"></path>
            </g>
        </g>
    </g>
</svg>