<?xml version="1.0" encoding="UTF-8"?>
<svg width="125px" height="175px" viewBox="0 0 125 175" version="1.1" xmlns="http://www.w3.org/2000/svg" xmlns:xlink="http://www.w3.org/1999/xlink">
    <!-- Generator: Sketch 54.1 (76490) - https://sketchapp.com -->
    <title>Group 24 Copy</title>
    <desc>Created with Sketch.</desc>
    <g id="Page-1" stroke="none" stroke-width="1" fill="none" fill-rule="evenodd">
        <g id="Group-24-Copy">
            <g id="Ghost_2">
                <g id="Group-20" transform="translate(23.214286, 42.971530)">
                    <ellipse id="Oval-Copy-5" fill="#000000" cx="62.4468537" cy="21.1743772" rx="4.9957483" ry="6.22775801"></ellipse>
                    <ellipse id="Oval" fill="#000000" cx="20.482568" cy="21.1743772" rx="4.9957483" ry="6.22775801"></ellipse>
                    <g id="Group-19" stroke="#000000">
                        <path d="M62.4468537,19.5216367 C69.3445427,19.5216367 74.9362245,24.1681344 74.9362245,15.569395 C74.9362245,6.97065559 69.3445427,-1.03028697e-13 62.4468537,-1.03028697e-13 C55.5491647,-1.03028697e-13 49.957483,6.97065559 49.957483,15.569395 C49.957483,24.1681344 55.5491647,19.5216367 62.4468537,19.5216367 Z" id="Oval" stroke-width="3" fill="#D8D8D8"></path>
                        <path d="M20.482568,19.447762 C27.380257,19.447762 32.9719388,23.9920259 32.9719388,15.4559438 C32.9719388,6.91986175 27.380257,1.77635684e-14 20.482568,1.77635684e-14 C13.584879,1.77635684e-14 7.99319728,6.91986175 7.99319728,15.4559438 C7.99319728,23.9920259 13.584879,19.447762 20.482568,19.447762 Z" id="Oval-Copy-4" stroke-width="3" fill="#D8D8D8"></path>
                        <path d="M83.678784,19.5216367 L0.249787415,19.5216367" id="Line" stroke-width="7" stroke-linecap="square"></path>
                    </g>
                </g>
                <g id="ghost" fill="#000000" fill-rule="nonzero">
                    <path d="M60.5794271,0.0302677515 C26.3704427,1.10693621 0,32.4431152 0,68.3764976 L0,158.584224 C0,163.458285 5.60872396,165.895316 8.88997396,162.449977 L17.0019531,156.116432 C19.1699219,154.424524 22.2102865,154.752652 24.0039062,156.871809 L37.985026,173.397815 C40.0195312,175.534062 43.3170573,175.534062 45.3515625,173.397815 L58.6067708,157.726307 C60.6803385,155.275605 64.3229167,155.275605 66.3932292,157.726307 L79.6484375,173.397815 C81.6829427,175.534062 84.9804688,175.534062 87.014974,173.397815 L100.996094,156.871809 C102.789714,154.752652 105.830078,154.421106 107.998047,156.116432 L116.110026,162.449977 C119.391276,165.895316 125,163.454867 125,158.584224 L125,65.6250116 C125,28.7106646 95.9733073,-1.08399865 60.5794271,0.0302677515 Z M41.6666667,76.5625959 C35.9147135,76.5625959 31.25,71.6646089 31.25,65.6250116 C31.25,59.5854142 35.9147135,54.6874273 41.6666667,54.6874273 C47.4186198,54.6874273 52.0833333,59.5854142 52.0833333,65.6250116 C52.0833333,71.6646089 47.4186198,76.5625959 41.6666667,76.5625959 Z M83.3333333,76.5625959 C77.5813802,76.5625959 72.9166667,71.6646089 72.9166667,65.6250116 C72.9166667,59.5854142 77.5813802,54.6874273 83.3333333,54.6874273 C89.0852865,54.6874273 93.75,59.5854142 93.75,65.6250116 C93.75,71.6646089 89.0852865,76.5625959 83.3333333,76.5625959 Z" id="Shape"></path>
                </g>
            </g>
            <rect id="Rectangle" fill="#D8D8D8" x="25.625" y="96.7272727" width="31.25" height="6.36363636" rx="3.18181818"></rect>
        </g>
    </g>
</svg>