<?xml version="1.0" encoding="UTF-8"?>
<svg width="423px" height="77px" viewBox="0 0 423 77" version="1.1" xmlns="http://www.w3.org/2000/svg" xmlns:xlink="http://www.w3.org/1999/xlink">
    <!-- Generator: Sketch 54.1 (76490) - https://sketchapp.com -->
    <title>Group 11</title>
    <desc>Created with Sketch.</desc>
    <g id="Page-1" stroke="none" stroke-width="1" fill="none" fill-rule="evenodd">
        <g id="Group-11" transform="translate(-3.000000, -18.000000)" fill="#FFFFFF" fill-rule="nonzero">
            <path d="M46.0400391,73.8369141 C45.2880822,73.8369141 44.5760125,73.5691759 43.9038086,73.0336914 C43.2316047,72.498207 42.6562524,71.8203166 42.1777344,71 C41.2662715,69.7923117 40.4915396,68.7270554 39.8535156,67.8041992 C39.2154916,66.881343 38.6002634,65.9300179 38.0078125,64.9501953 C37.3697885,63.8792264 36.5494842,62.5861078 35.546875,61.0708008 C34.5442658,59.5554937 33.177092,57.5218227 31.4453125,54.9697266 C30.2376242,57.4762495 28.9445056,59.8688037 27.565918,62.1474609 C26.1873303,64.4261182 24.7347082,66.4313064 23.2080078,68.1630859 C21.6813075,69.8948654 20.0862713,71.2677358 18.4228516,72.2817383 C16.7594318,73.2957407 15.0504645,73.8027344 13.2958984,73.8027344 C12.042637,73.8027344 10.8919323,73.4837271 9.84375,72.8457031 C9.25129912,72.5950508 8.58480188,71.9171605 7.84423828,70.8120117 C7.10367468,69.706863 6.73339844,68.5390687 6.73339844,67.3085938 C6.73339844,66.3743443 7.05240566,65.4742882 7.69042969,64.6083984 C8.10058799,64.1298804 8.53352637,63.645673 8.98925781,63.1557617 C9.44498926,62.6658504 9.99185879,62.4208984 10.6298828,62.4208984 C10.9261083,62.4208984 11.1881499,62.5006502 11.4160156,62.6601562 C11.7122411,62.8196623 12.0027655,63.2639937 12.2875977,63.9931641 C12.5724298,64.7223344 12.9085267,65.4173144 13.2958984,66.078125 C13.6832702,66.7389356 14.1503879,67.0693359 14.6972656,67.0693359 C15.4720091,67.0693359 16.2923134,66.6876666 17.1582031,65.9243164 C18.0240929,65.1609662 18.9013627,64.1184962 19.7900391,62.796875 C20.6787154,61.4752538 21.5787715,59.9314867 22.4902344,58.1655273 C23.4016973,56.399568 24.3017534,54.5140074 25.1904297,52.5087891 C26.3069717,49.956693 27.4064073,47.2223453 28.4887695,44.3056641 C29.5711317,41.3889828 30.5737259,38.5862765 31.496582,35.8974609 C32.4194382,33.2086454 33.1770804,30.9414155 33.7695312,29.0957031 L34.8974609,25.4726562 L35.4443359,23.6611328 C35.6494151,22.9547491 36.0082982,22.4420589 36.5209961,22.1230469 C37.033694,21.8040349 37.5862601,21.6445312 38.1787109,21.6445312 C39.0446007,21.6445312 39.7054014,21.9122695 40.1611328,22.4477539 C40.6168643,22.9832384 40.8447266,23.9573497 40.8447266,25.3701172 L40.7763672,26.8740234 C40.7080075,27.534834 40.5542004,28.4519798 40.3149414,29.6254883 C40.0756824,30.7989968 39.7509786,32.1490809 39.3408203,33.6757812 C38.930662,35.2024816 38.4407581,36.8772695 37.8710938,38.7001953 C37.3014294,40.5231211 36.663415,42.4143782 35.9570312,44.3740234 C40.6738517,40.3408001 44.7013179,36.9798312 48.0395508,34.2910156 C51.3777836,31.6022001 54.0722554,29.51726 56.1230469,28.0361328 C59.6549656,25.5068233 61.9563749,24.2421875 63.0273438,24.2421875 C63.7337275,24.2421875 64.2464177,24.5554982 64.5654297,25.1821289 C64.8844417,25.8087596 65.0439453,26.2701808 65.0439453,26.5664062 C65.0439453,27.4095094 64.6565794,28.0817032 63.8818359,28.5830078 C61.5120324,30.2464276 58.9827608,32.1376847 56.2939453,34.2568359 C53.6051298,36.3759872 50.9619271,38.5292859 48.3642578,40.7167969 C45.8121617,42.8587347 43.4765731,44.8183505 41.3574219,46.5957031 C39.2382707,48.3730558 37.5406965,49.7516227 36.2646484,50.7314453 C37.4267636,52.3037188 38.5888614,53.8360928 39.7509766,55.3286133 C40.9130917,56.8211338 42.0068308,58.2395766 43.0322266,59.5839844 C44.0576223,60.9739653 45.0545199,62.329746 46.0229492,63.6513672 C46.9913785,64.9729884 47.9085243,66.3059829 48.7744141,67.6503906 C49.3212918,68.5162804 49.5947266,69.370764 49.5947266,70.2138672 C49.5947266,71.3987689 49.1503951,72.298825 48.2617188,72.9140625 C47.3730424,73.5293 46.6324899,73.8369141 46.0400391,73.8369141 Z M63.4716797,71.8544922 C62.6969362,71.8544922 61.7740939,71.638023 60.703125,71.2050781 C59.6321561,70.7721333 58.6922241,70.054367 57.8833008,69.0517578 C57.0743775,68.0491486 56.6699219,66.704761 56.6699219,65.0185547 C56.6699219,63.6057872 56.9889291,61.8398543 57.6269531,59.7207031 C58.2649771,57.6015519 59.2675713,55.5166118 60.6347656,53.4658203 C62.00196,51.3694557 63.7508031,49.626309 65.8813477,48.2363281 C68.0118922,46.8463472 70.4785016,46.1513672 73.28125,46.1513672 C74.2838592,46.1513672 75.1611291,46.2766915 75.9130859,46.5273438 C76.6650428,46.777996 77.3030573,47.0514308 77.8271484,47.3476562 C78.1233739,47.5299488 78.4025052,47.7179352 78.6645508,47.9116211 C78.9265964,48.105307 79.1715483,48.3160796 79.3994141,48.5439453 L80.5957031,47.9628906 C80.9375017,47.8033846 81.2963848,47.6609707 81.6723633,47.5356445 C82.0483417,47.4103184 82.3730455,47.3476562 82.6464844,47.3476562 C83.5123741,47.3476562 84.2187473,47.5869117 84.765625,48.0654297 C85.3125027,48.5439477 85.5859375,49.068031 85.5859375,49.6376953 C85.5859375,49.8199879 85.5745444,49.9453122 85.5517578,50.0136719 C85.3922518,50.6516959 85.1017274,51.5289658 84.6801758,52.6455078 C84.2586242,53.7620499 83.8085961,55.0038994 83.3300781,56.3710938 C82.8515601,57.6927149 82.4471045,58.9687438 82.1166992,60.1992188 C81.7862939,61.4296937 81.6210938,62.4436809 81.6210938,63.2412109 C81.6210938,63.9248081 81.7350249,64.4887673 81.9628906,64.9331055 C82.1907563,65.3774436 82.5781223,65.5996094 83.125,65.5996094 C83.7858106,65.5996094 84.6744736,65.21794 85.7910156,64.4545898 C86.9075577,63.6912397 88.0582623,62.785487 89.2431641,61.7373047 C89.8811881,61.1676404 90.5419888,60.5581087 91.2255859,59.9086914 C91.9091831,59.2592741 92.6041631,58.5699906 93.3105469,57.8408203 C93.675132,57.5445949 94.0283186,57.3964844 94.3701172,57.3964844 C94.8258486,57.3964844 95.207518,57.6186501 95.5151367,58.0629883 C95.8227554,58.5073264 95.9765625,59.002927 95.9765625,59.5498047 C95.9765625,60.1878287 95.7600933,60.7233051 95.3271484,61.15625 C94.4156855,61.9993532 93.4814501,62.8994093 92.5244141,63.8564453 C91.567378,64.8134813 90.2457767,65.9869722 88.5595703,67.3769531 C87.0556565,68.607428 85.5061929,69.6612912 83.9111328,70.5385742 C82.3160728,71.4158573 80.8805402,71.8544922 79.6044922,71.8544922 C78.0094321,71.8544922 76.8473344,71.2335674 76.1181641,69.9916992 C75.3889937,68.749831 75.0244141,67.4225331 75.0244141,66.0097656 C75.0244141,64.9843699 75.1725246,64.0729207 75.46875,63.2753906 C74.5345005,64.5286521 73.4293684,65.8217707 72.1533203,67.1547852 C70.8772723,68.4877996 69.4987053,69.6043249 68.0175781,70.5043945 C66.5364509,71.4044641 65.0211666,71.8544922 63.4716797,71.8544922 Z M66.2060547,65.8388672 C66.935225,65.8388672 67.8523708,65.3717495 68.9575195,64.4375 C70.0626683,63.5032505 71.1279246,62.4095115 72.1533203,61.15625 C73.2926489,59.7890557 74.192705,58.5472061 74.8535156,57.4306641 C75.5143262,56.314122 75.8447266,55.5621764 75.8447266,55.1748047 C75.8447266,54.3089149 75.3434295,53.6196315 74.3408203,53.1069336 C73.3382111,52.5942357 72.438155,52.3378906 71.640625,52.3378906 C70.2278575,52.3378906 68.8891665,52.7936152 67.6245117,53.7050781 C66.359857,54.616541 65.32878,55.7843353 64.53125,57.2084961 C63.73372,58.6326569 63.3349609,60.1080653 63.3349609,61.6347656 C63.3349609,62.5234419 63.5001611,63.4462843 63.8305664,64.4033203 C64.1609717,65.3603563 64.9527932,65.8388672 66.2060547,65.8388672 Z M96.3183594,91.2685547 C95.4068965,91.2685547 94.666344,90.9666371 94.0966797,90.362793 C93.5270154,89.7589488 93.2421875,88.9443411 93.2421875,87.9189453 C93.2421875,86.9619093 93.3618152,86.0105842 93.6010742,85.0649414 C93.8403332,84.1192987 94.267575,83.0768286 94.8828125,81.9375 C95.4752634,80.7981714 96.2670849,79.527839 97.2583008,78.1264648 C98.2495167,76.7250906 99.4970628,75.0787855 101.000977,73.1875 L107.836914,59.3447266 C104.418928,63.4007364 101.320001,66.4996638 98.5400391,68.6416016 C95.7600772,70.7835394 93.162447,71.8544922 90.7470703,71.8544922 C89.9723269,71.8544922 89.3115262,71.6778989 88.7646484,71.324707 C88.2177707,70.9715152 87.9443359,70.3847697 87.9443359,69.5644531 C87.9443359,68.4251245 88.2177707,67.1377025 88.7646484,65.7021484 C89.2203799,64.5856064 89.7045873,63.5431364 90.2172852,62.574707 C90.729983,61.6062777 91.2597629,60.5865939 91.8066406,59.515625 C92.3763049,58.3762964 93.0371056,56.9749432 93.7890625,55.3115234 C94.5410194,53.6481037 95.3727168,51.6543085 96.2841797,49.3300781 C96.7399111,48.4414018 97.3323531,47.7976908 98.0615234,47.3989258 C98.7906938,47.0001608 99.4970669,46.8007812 100.180664,46.8007812 C100.887048,46.8007812 101.485186,46.9659814 101.975098,47.2963867 C102.465009,47.626792 102.709961,48.065427 102.709961,48.6123047 C102.709961,48.9085301 102.664388,49.1477855 102.573242,49.3300781 L96.3183594,62.3525391 C95.9993474,63.0361362 95.8398438,63.5602195 95.8398438,63.9248047 C95.8398438,64.2666033 95.9765611,64.4375 96.25,64.4375 C96.5006523,64.4375 96.8196595,64.3121757 97.2070312,64.0615234 C97.594403,63.8108711 97.9589827,63.5260433 98.3007812,63.2070312 L112.416992,49.3300781 C113.556321,48.4186152 114.433591,47.8603526 115.048828,47.6552734 C115.664066,47.4501943 116.267901,47.3476562 116.860352,47.3476562 C117.33887,47.3476562 117.680663,47.5242495 117.885742,47.8774414 C118.090821,48.2306333 118.193359,48.6009095 118.193359,48.9882812 C118.193359,49.2845067 118.136394,49.5807277 118.022461,49.8769531 L110.366211,65.8388672 C111.459966,65.0185506 112.713209,64.215336 114.125977,63.4291992 C115.538744,62.6430625 116.917311,61.9309928 118.261719,61.2929688 C119.606127,60.6549447 120.745438,60.1479511 121.679688,59.7719727 C122.613937,59.3959942 123.13802,59.2080078 123.251953,59.2080078 C123.821617,59.2080078 124.322915,59.424477 124.755859,59.8574219 C125.188804,60.2903667 125.405273,60.8372363 125.405273,61.4980469 C125.405273,62.0904978 125.183108,62.7171191 124.73877,63.3779297 C124.294431,64.0387403 123.514003,64.6767547 122.397461,65.2919922 C120.961907,66.0895222 119.60043,66.8300747 118.312988,67.5136719 C117.025547,68.197269 115.948898,68.7783179 115.083008,69.2568359 L112.65625,70.6240234 C111.562495,71.2620475 110.554204,71.9342413 109.631348,72.640625 C108.708491,73.3470087 107.779953,74.1331337 106.845703,74.9990234 C105.843094,77.6194792 104.903162,79.9322816 104.025879,81.9375 C103.148596,83.9427184 102.607423,85.1389955 102.402344,85.5263672 C100.556631,89.3545113 98.5286569,91.2685547 96.3183594,91.2685547 Z M127.319336,71.8544922 C124.995106,71.8544922 123.206386,71.1766018 121.953125,69.8208008 C120.699864,68.4649997 120.073242,66.8414808 120.073242,64.9501953 C120.073242,63.4007084 120.591629,61.5607203 121.628418,59.4301758 C122.665207,57.2996313 124.038077,55.2317809 125.74707,53.2265625 C127.47885,51.175771 129.421376,49.4838934 131.574707,48.1508789 C133.728038,46.8178644 135.87564,46.1513672 138.017578,46.1513672 C139.06576,46.1513672 139.937334,46.3906226 140.632324,46.8691406 C141.327315,47.3476586 141.674805,48.1565698 141.674805,49.2958984 C141.674805,50.2529345 141.526694,51.3067976 141.230469,52.4575195 C140.934243,53.6082414 140.455732,54.5994425 139.794922,55.4311523 C139.134111,56.2628622 138.245448,56.6787109 137.128906,56.6787109 C136.673175,56.6787109 136.38265,56.6103522 136.257324,56.4736328 C136.131998,56.3369134 136.069336,56.097658 136.069336,55.7558594 L136.103516,54.8330078 L136.103516,53.7050781 C136.103516,53.2949198 136.04655,52.9474298 135.932617,52.6625977 C135.818684,52.3777655 135.533856,52.2353516 135.078125,52.2353516 C134.348955,52.2353516 133.483078,52.628414 132.480469,53.4145508 C131.47786,54.2006875 130.475265,55.2431576 129.472656,56.5419922 C128.538407,57.7952537 127.763675,59.0427998 127.148438,60.284668 C126.5332,61.5265362 126.225586,62.5690062 126.225586,63.4121094 C126.225586,64.2096394 126.504717,64.8362607 127.062988,65.2919922 C127.621259,65.7477236 128.378901,65.9755859 129.335938,65.9755859 C130.839851,65.9755859 132.491853,65.6223994 134.291992,64.9160156 C136.092131,64.2096319 137.801099,63.3893276 139.418945,62.4550781 C140.991219,61.5436152 142.375482,60.6891316 143.571777,59.8916016 C144.768072,59.0940715 145.480142,58.6383469 145.708008,58.5244141 C146.118166,58.3421215 146.45996,58.2509766 146.733398,58.2509766 C147.303063,58.2509766 147.690429,58.4560526 147.895508,58.8662109 C148.100587,59.2763692 148.203125,59.6295558 148.203125,59.9257812 C148.203125,60.1308604 148.180339,60.3758124 148.134766,60.6606445 C148.089192,60.9454767 147.918296,61.2701805 147.62207,61.6347656 C147.303058,62.0221374 146.471361,62.7512967 145.126953,63.8222656 C143.782545,64.8932345 142.30144,65.9641874 140.683594,67.0351562 C138.746735,68.3339909 136.582043,69.4619093 134.189453,70.4189453 C131.796863,71.3759813 129.506847,71.8544922 127.319336,71.8544922 Z M150.458984,71.8544922 C148.636059,71.8544922 147.080898,71.4044641 145.793457,70.5043945 C144.506016,69.6043249 143.526208,68.4194409 142.854004,66.949707 C142.1818,65.4799731 141.845703,63.9020267 141.845703,62.2158203 C141.845703,60.7346931 142.272945,59.0769948 143.127441,57.2426758 C143.981938,55.4083567 145.206698,53.6481204 146.801758,51.9619141 C148.396818,50.2757077 150.305165,48.8800511 152.526855,47.7749023 C154.748546,46.6697536 157.169583,46.1171875 159.790039,46.1171875 C161.681325,46.1171875 163.094071,46.5729121 164.02832,47.484375 C164.96257,48.3958379 165.429688,49.6604737 165.429688,51.2783203 C165.429688,52.2353563 165.179039,53.2379505 164.677734,54.2861328 C164.17643,55.3343151 163.310553,56.3938749 162.080078,57.4648438 C160.849603,58.5585992 159.203298,59.669428 157.141113,60.7973633 C155.078928,61.9252986 152.498388,63.0589136 149.399414,64.1982422 C149.650066,65.6110097 150.789378,66.3173828 152.817383,66.3173828 C154.389656,66.3173828 156.08723,65.992679 157.910156,65.3432617 C159.733082,64.6938444 161.487622,63.9475954 163.173828,63.1044922 C164.860034,62.2841756 166.30696,61.5094438 167.514648,60.7802734 C168.722337,60.0511031 169.440103,59.640951 169.667969,59.5498047 C169.873048,59.4130853 170.061034,59.3333334 170.231934,59.3105469 C170.402833,59.2877603 170.55664,59.2763672 170.693359,59.2763672 C171.240237,59.2763672 171.621906,59.4871398 171.838379,59.9086914 C172.054851,60.330243 172.163086,60.677733 172.163086,60.9511719 C172.163086,61.156251 172.1403,61.401203 172.094727,61.6860352 C172.049153,61.9708673 171.878257,62.2955711 171.582031,62.6601562 C171.285806,62.9563817 170.419929,63.6057893 168.984375,64.6083984 C167.548821,65.6110076 166.01075,66.5794224 164.370117,67.5136719 C162.364899,68.6302139 160.131848,69.6328081 157.670898,70.5214844 C155.209949,71.4101607 152.806001,71.8544922 150.458984,71.8544922 Z M148.886719,60.2675781 C150.367846,59.4928347 151.877434,58.587082 153.415527,57.550293 C154.953621,56.5135039 156.121415,55.7558618 156.918945,55.2773438 C157.989914,54.5937466 158.696287,53.9899115 159.038086,53.4658203 C159.425458,52.896156 159.619141,52.4176452 159.619141,52.0302734 C159.619141,51.6884749 159.510906,51.4150401 159.294434,51.2099609 C159.077961,51.0048818 158.833009,50.8795575 158.55957,50.8339844 L158.251953,50.7998047 L157.944336,50.7998047 C156.691074,50.7998047 155.534673,51.1586878 154.475098,51.8764648 C153.415522,52.5942419 152.521163,53.4886014 151.791992,54.5595703 C151.017249,55.6761124 150.396324,56.724279 149.929199,57.7041016 C149.462074,58.6839242 149.114584,59.5384078 148.886719,60.2675781 Z M174.521484,71.8544922 C172.698559,71.8544922 171.143398,71.4044641 169.855957,70.5043945 C168.568516,69.6043249 167.588708,68.4194409 166.916504,66.949707 C166.2443,65.4799731 165.908203,63.9020267 165.908203,62.2158203 C165.908203,60.7346931 166.335445,59.0769948 167.189941,57.2426758 C168.044438,55.4083567 169.269198,53.6481204 170.864258,51.9619141 C172.459318,50.2757077 174.367665,48.8800511 176.589355,47.7749023 C178.811046,46.6697536 181.232083,46.1171875 183.852539,46.1171875 C185.743825,46.1171875 187.156571,46.5729121 188.09082,47.484375 C189.02507,48.3958379 189.492188,49.6604737 189.492188,51.2783203 C189.492188,52.2353563 189.241539,53.2379505 188.740234,54.2861328 C188.23893,55.3343151 187.373053,56.3938749 186.142578,57.4648438 C184.912103,58.5585992 183.265798,59.669428 181.203613,60.7973633 C179.141428,61.9252986 176.560888,63.0589136 173.461914,64.1982422 C173.712566,65.6110097 174.851878,66.3173828 176.879883,66.3173828 C178.452156,66.3173828 180.14973,65.992679 181.972656,65.3432617 C183.795582,64.6938444 185.550122,63.9475954 187.236328,63.1044922 C188.922534,62.2841756 190.36946,61.5094438 191.577148,60.7802734 C192.784837,60.0511031 193.502603,59.640951 193.730469,59.5498047 C193.935548,59.4130853 194.123534,59.3333334 194.294434,59.3105469 C194.465333,59.2877603 194.61914,59.2763672 194.755859,59.2763672 C195.302737,59.2763672 195.684406,59.4871398 195.900879,59.9086914 C196.117351,60.330243 196.225586,60.677733 196.225586,60.9511719 C196.225586,61.156251 196.2028,61.401203 196.157227,61.6860352 C196.111653,61.9708673 195.940757,62.2955711 195.644531,62.6601562 C195.348306,62.9563817 194.482429,63.6057893 193.046875,64.6083984 C191.611321,65.6110076 190.07325,66.5794224 188.432617,67.5136719 C186.427399,68.6302139 184.194348,69.6328081 181.733398,70.5214844 C179.272449,71.4101607 176.868501,71.8544922 174.521484,71.8544922 Z M172.949219,60.2675781 C174.430346,59.4928347 175.939934,58.587082 177.478027,57.550293 C179.016121,56.5135039 180.183915,55.7558618 180.981445,55.2773438 C182.052414,54.5937466 182.758787,53.9899115 183.100586,53.4658203 C183.487958,52.896156 183.681641,52.4176452 183.681641,52.0302734 C183.681641,51.6884749 183.573406,51.4150401 183.356934,51.2099609 C183.140461,51.0048818 182.895509,50.8795575 182.62207,50.8339844 L182.314453,50.7998047 L182.006836,50.7998047 C180.753574,50.7998047 179.597173,51.1586878 178.537598,51.8764648 C177.478022,52.5942419 176.583663,53.4886014 175.854492,54.5595703 C175.079749,55.6761124 174.458824,56.724279 173.991699,57.7041016 C173.524574,58.6839242 173.177084,59.5384078 172.949219,60.2675781 Z M234.848633,71.2050781 C234.324542,71.2050781 233.834638,71.1367194 233.378906,71 C232.854815,70.840494 232.387697,70.7493491 231.977539,70.7265625 C230.473625,70.5670565 229.134934,70.4588219 227.961426,70.4018555 C226.787917,70.344889 225.688482,70.3164062 224.663086,70.3164062 C223.478184,70.3164062 222.156583,70.344889 220.698242,70.4018555 C219.239902,70.4588219 217.838548,70.4873047 216.494141,70.4873047 C215.742184,70.4873047 215.161135,70.2708355 214.750977,69.8378906 C214.340818,69.4049458 214.135742,68.8694693 214.135742,68.2314453 C214.135742,67.980793 214.169922,67.7187514 214.238281,67.4453125 C214.397787,66.9212213 215.326326,66.4085312 217.023926,65.9072266 C218.721525,65.405922 220.664052,65.0755216 222.851562,64.9160156 C224.651702,61.0195118 226.503083,57.1857285 228.405762,53.4145508 C230.308441,49.6433731 232.250967,45.9235209 234.233398,42.2548828 C236.170257,38.677391 237.862135,35.6582154 239.309082,33.1972656 C240.756029,30.7363158 241.878251,28.9817761 242.675781,27.9335938 L239.291992,28.7197266 C238.745114,28.8792326 238.164066,29.0273431 237.548828,29.1640625 C236.933591,29.3007819 236.284183,29.4374993 235.600586,29.5742188 C235.349934,29.665365 235.076499,29.7109375 234.780273,29.7109375 C234.119463,29.7109375 233.606773,29.4773786 233.242188,29.0102539 C232.877602,28.5431292 232.695312,27.97917 232.695312,27.3183594 C232.695312,26.8626279 233.270665,26.3157584 234.421387,25.6777344 C235.572109,25.0397104 237.127269,24.413089 239.086914,23.7978516 C240.9782,23.2054007 243.137195,22.7041036 245.563965,22.2939453 C247.990735,21.883787 250.51431,21.6787109 253.134766,21.6787109 C254.684253,21.6787109 255.937495,21.8382146 256.894531,22.1572266 C257.783208,22.4990251 258.227539,23.0686809 258.227539,23.8662109 C258.227539,24.7093141 257.794601,25.4726528 256.928711,26.15625 C256.062821,26.8398472 255.083013,27.1816406 253.989258,27.1816406 C253.761392,27.1816406 253.465171,27.1588544 253.100586,27.1132812 C252.963867,27.0904947 252.821453,27.0791016 252.67334,27.0791016 L252.211914,27.0791016 C251.368811,27.0791016 250.582686,27.0961912 249.853516,27.1303711 C249.124345,27.164551 248.429365,27.2044269 247.768555,27.25 C247.814128,27.569012 247.836914,27.7399087 247.836914,27.7626953 C247.836914,28.0817073 247.779948,28.3836249 247.666016,28.668457 C247.552083,28.9532892 247.438152,29.2210274 247.324219,29.4716797 L238.095703,48.6123047 C236.022125,52.8733937 234.353034,56.2628455 233.088379,58.7807617 C231.823724,61.298678 230.792647,63.3665284 229.995117,64.984375 C232.319348,65.1894542 234.353019,65.565427 236.096191,66.1123047 C237.839364,66.6591824 238.710938,67.4453074 238.710938,68.4707031 C238.710938,69.1770869 238.295089,69.8094048 237.463379,70.3676758 C236.631669,70.9259468 235.760096,71.2050781 234.848633,71.2050781 Z M245.273438,71.8544922 C244.475907,71.8544922 243.849286,71.6038437 243.393555,71.1025391 C242.937823,70.6012345 242.709961,69.9860063 242.709961,69.2568359 C242.709961,68.6643851 243.051754,67.5535563 243.735352,65.9243164 C244.418949,64.2950765 245.216467,62.5462333 246.12793,60.6777344 C247.290045,58.2395711 248.315425,56.1261483 249.204102,54.3374023 C250.092778,52.5486564 250.753579,51.1871792 251.186523,50.2529297 C251.642255,49.2731071 252.211911,48.5439477 252.895508,48.0654297 C253.579105,47.5869117 254.251299,47.3476562 254.912109,47.3476562 C255.458987,47.3476562 255.948891,47.5470358 256.381836,47.9458008 C256.814781,48.3445658 257.03125,48.9313112 257.03125,49.7060547 C257.03125,50.0022801 256.997071,50.3212874 256.928711,50.6630859 C256.860351,51.0048845 256.735027,51.3694642 256.552734,51.7568359 C257.259118,50.8681596 258.307285,49.9965863 259.697266,49.1420898 C261.087247,48.2875934 262.591138,47.5755237 264.208984,47.0058594 C265.826831,46.4361951 267.319329,46.1513672 268.686523,46.1513672 C269.894212,46.1513672 270.902502,46.4418916 271.711426,47.0229492 C272.520349,47.6040068 272.924805,48.5895113 272.924805,49.9794922 C272.924805,51.1643939 272.662763,52.4461194 272.138672,53.824707 C271.614581,55.2032947 270.987959,56.5305926 270.258789,57.8066406 C269.484046,59.1510484 268.760583,60.3302358 268.088379,61.3442383 C267.416175,62.3582407 266.897788,63.1956347 266.533203,63.8564453 C266.236978,64.2210305 266.088867,64.6425757 266.088867,65.1210938 C266.088867,65.5768252 266.328123,65.8046875 266.806641,65.8046875 C266.966147,65.8046875 267.148436,65.7875978 267.353516,65.753418 C267.558595,65.7192381 267.809243,65.5996104 268.105469,65.3945312 C269.814462,64.7565072 271.517732,63.947596 273.215332,62.9677734 C274.912932,61.9879508 276.473788,60.9739636 277.897949,59.9257812 C279.32211,58.8775989 280.467118,57.9547566 281.333008,57.1572266 C281.697593,56.8610011 282.05078,56.7128906 282.392578,56.7128906 C283.212895,56.7128906 283.623047,57.2369739 283.623047,58.2851562 C283.623047,58.99154 283.400881,59.7776649 282.956543,60.6435547 C282.512205,61.5094444 281.811528,62.3183556 280.854492,63.0703125 C279.191072,64.2552143 277.635912,65.3546499 276.188965,66.3686523 C274.742018,67.3826548 273.209644,68.2998006 271.591797,69.1201172 C269.97395,69.9404338 268.048514,70.6695932 265.81543,71.3076172 C264.653315,71.6722023 263.662113,71.8544922 262.841797,71.8544922 C260.517567,71.8544922 259.355469,70.5784633 259.355469,68.0263672 C259.355469,67.8668612 259.361165,67.7130541 259.372559,67.5649414 C259.383952,67.4168287 259.401042,67.2516285 259.423828,67.0693359 C259.492188,66.0439402 259.856768,64.8533596 260.517578,63.4975586 C261.178389,62.1417575 261.896155,60.8030665 262.670898,59.4814453 C263.445642,58.2053973 264.140622,57.0091202 264.755859,55.8925781 C265.371097,54.7760361 265.678711,53.9443387 265.678711,53.3974609 C265.678711,52.5771443 265.291345,52.1669922 264.516602,52.1669922 C263.081048,52.1669922 261.708177,52.5885375 260.397949,53.4316406 C259.087721,54.2747438 257.857265,55.3400001 256.706543,56.6274414 C255.555821,57.9148827 254.501958,59.2592703 253.544922,60.6606445 C252.587886,62.0620187 251.744795,63.3323511 251.015625,64.4716797 C250.491534,65.3375694 249.98454,66.3515567 249.494629,67.5136719 C249.004718,68.6757871 248.435062,69.6897743 247.785645,70.5556641 C247.136227,71.4215538 246.298833,71.8544922 245.273438,71.8544922 Z M283.31543,91.3027344 C282.426753,91.3027344 281.726077,90.9951203 281.213379,90.3798828 C280.700681,89.7646454 280.444336,89.0240929 280.444336,88.1582031 C280.444336,87.2467402 280.666502,86.181484 281.11084,84.9624023 C281.555178,83.7433207 282.16471,82.438809 282.939453,81.0488281 C284.511727,78.2460797 286.699205,75.2155111 289.501953,71.9570312 L293.740234,66.5566406 C291.985668,68.1744873 290.322273,69.3194953 288.75,69.9916992 C287.177727,70.6639031 285.867518,71 284.819336,71 C282.99641,71 281.486822,70.2024819 280.290527,68.6074219 C279.094232,67.0123618 278.496094,65.0071735 278.496094,62.5917969 C278.496094,60.0852739 278.980301,57.818044 279.94873,55.7900391 C280.91716,53.7620341 282.164706,52.0302806 283.691406,50.5947266 C285.19532,49.1819591 286.864411,48.08822 288.69873,47.3134766 C290.53305,46.5387331 292.327465,46.1513672 294.082031,46.1513672 C295.08464,46.1513672 295.96191,46.2766915 296.713867,46.5273438 C297.465824,46.777996 298.103839,47.0514308 298.62793,47.3476562 C298.924155,47.5299488 299.203286,47.7179352 299.465332,47.9116211 C299.727378,48.105307 299.97233,48.3160796 300.200195,48.5439453 C300.56478,48.293293 300.906574,48.0996101 301.225586,47.9628906 C301.544598,47.8033846 301.897785,47.6609707 302.285156,47.5356445 C302.672528,47.4103184 303.059894,47.3476562 303.447266,47.3476562 C304.449875,47.3476562 305.224607,47.5527323 305.771484,47.9628906 C306.318362,48.3730489 306.591797,48.8629529 306.591797,49.4326172 C306.591797,49.7288426 306.512045,50.0250636 306.352539,50.3212891 L298.354492,65.4628906 L299.003906,64.8818359 C301.692722,63.3095625 303.902986,62.0734094 305.634766,61.1733398 C307.366545,60.2732702 308.745112,59.606773 309.770508,59.1738281 C310.568038,58.8320295 311.228839,58.5870776 311.75293,58.4389648 C312.277021,58.2908521 312.630207,58.2167969 312.8125,58.2167969 C313.336591,58.2167969 313.741047,58.4161764 314.025879,58.8149414 C314.310711,59.2137064 314.453125,59.7093069 314.453125,60.3017578 C314.453125,60.9625684 314.265139,61.6347622 313.88916,62.3183594 C313.513182,63.0019565 312.937829,63.4918605 312.163086,63.7880859 C310.818678,64.4716831 309.206552,65.2293253 307.32666,66.0610352 C305.446768,66.892745 303.487152,67.8611598 301.447754,68.9663086 C299.408356,70.0714573 297.477223,71.3873622 295.654297,72.9140625 L289.023438,84.9111328 C287.975255,87.4176558 287.04102,89.126623 286.220703,90.0380859 C285.468746,90.8811891 284.500331,91.3027344 283.31543,91.3027344 Z M287.348633,65.2578125 C288.055017,65.2578125 288.94368,64.8191776 290.014648,63.9418945 C291.085617,63.0646115 292.110998,62.0335346 293.09082,60.8486328 C294.093429,59.6637311 294.93652,58.5358126 295.620117,57.4648438 C296.303714,56.3938749 296.645508,55.6305361 296.645508,55.1748047 C296.645508,54.1721955 296.172694,53.4202499 295.227051,52.9189453 C294.281408,52.4176407 293.4668,52.1669922 292.783203,52.1669922 C291.347649,52.1669922 289.997565,52.6170202 288.73291,53.5170898 C287.468255,54.4171594 286.442875,55.5906503 285.656738,57.0375977 C284.870602,58.484545 284.477539,60.016919 284.477539,61.6347656 C284.477539,62.4095091 284.637043,63.2070271 284.956055,64.0273438 C285.275067,64.8476604 286.072585,65.2578125 287.348633,65.2578125 Z M308.608398,71.8544922 C307.46907,71.8544922 306.899414,71.2734433 306.899414,70.1113281 C306.899414,69.8606758 306.93929,69.5473652 307.019043,69.1713867 C307.098796,68.7954083 307.263996,68.3795596 307.514648,67.9238281 C307.90202,67.1946578 308.323565,66.3344776 308.779297,65.3432617 C309.235028,64.3520458 309.713539,63.3209689 310.214844,62.25 C310.761721,61.0878848 311.394039,59.7491938 312.111816,58.2338867 C312.829593,56.7185797 313.678381,54.9697365 314.658203,52.9873047 C314.339191,52.7138658 314.071453,52.3777689 313.85498,51.9790039 C313.638508,51.5802389 313.530273,51.0846384 313.530273,50.4921875 C313.530273,49.4212186 313.946122,48.6293971 314.777832,48.1166992 C315.609542,47.6040013 316.60644,47.3476562 317.768555,47.3476562 C318.907883,47.3476562 320.018712,47.5470358 321.101074,47.9458008 C322.183436,48.3445658 322.724609,48.9427043 322.724609,49.7402344 C322.724609,49.8313807 322.650554,50.0421533 322.502441,50.3725586 C322.354329,50.7029639 322.280273,50.9251296 322.280273,51.0390625 C322.280273,51.0846356 322.291667,51.1074219 322.314453,51.1074219 L322.348633,51.1074219 L322.416992,51.0732422 C324.103199,50.0250599 325.914704,49.1363969 327.851562,48.4072266 C329.788421,47.6780562 331.383457,47.3134766 332.636719,47.3134766 C333.662115,47.3134766 334.453936,47.5584285 335.012207,48.0483398 C335.570478,48.5382511 335.849609,49.364252 335.849609,50.5263672 C335.849609,50.7770195 335.838216,51.0447577 335.81543,51.3295898 C335.792643,51.614422 335.747071,51.9163396 335.678711,52.2353516 C335.519205,53.0784547 334.88119,54.1721938 333.764648,55.5166016 C332.648106,56.8610093 331.463222,58.1598245 330.209961,59.4130859 C329.640297,59.9827502 328.95671,60.6606406 328.15918,61.4467773 C327.36165,62.2329141 326.66667,62.9506803 326.074219,63.6000977 C325.481768,64.249515 325.185547,64.6881499 325.185547,64.9160156 C325.185547,65.2350276 325.299478,65.3945312 325.527344,65.3945312 C327.167977,64.6881475 329.025055,63.8165742 331.098633,62.7797852 C333.172211,61.7429961 335.177399,60.7005261 337.114258,59.6523438 C339.051116,58.6041614 340.634759,57.7268916 341.865234,57.0205078 C342.343752,56.7470689 342.753905,56.6103516 343.095703,56.6103516 C344.052739,56.6103516 344.53125,57.1116486 344.53125,58.1142578 C344.53125,58.638349 344.309084,59.2364875 343.864746,59.9086914 C343.420408,60.5808953 342.674159,61.2815719 341.625977,62.0107422 C340.646154,62.6259796 339.307463,63.4747667 337.609863,64.5571289 C335.912264,65.6394911 334.231779,66.6591749 332.568359,67.6162109 C330.927726,68.5504604 329.361173,69.3479785 327.868652,70.0087891 C326.376132,70.6695997 325.128586,71 324.125977,71 C322.553703,71 321.374516,70.6240272 320.588379,69.8720703 C319.802242,69.1201134 319.40918,68.1516986 319.40918,66.9667969 C319.40918,66.7617177 319.420573,66.6250003 319.443359,66.5566406 C319.694012,65.0983 320.218095,63.6855537 321.015625,62.3183594 C321.813155,60.951165 322.644852,59.6979224 323.510742,58.5585938 C324.376632,57.4420517 325.145667,56.4052782 325.817871,55.4482422 C326.490075,54.4912062 326.826172,53.6709019 326.826172,52.9873047 C326.826172,52.6455061 326.700848,52.4746094 326.450195,52.4746094 C326.08561,52.4746094 325.424809,52.6512027 324.467773,53.0043945 C323.510737,53.3575864 322.565109,53.8190076 321.630859,54.3886719 C320.69661,54.9583362 320.058595,55.5621713 319.716797,56.2001953 C319.261065,56.9977253 318.685713,58.1085541 317.990723,59.5327148 C317.295732,60.9568756 316.612145,62.4094978 315.939941,63.890625 C315.267738,65.3717522 314.703778,66.6022086 314.248047,67.5820312 C313.746742,68.8352927 312.920741,69.8606731 311.77002,70.6582031 C310.619298,71.4557332 309.565434,71.8544922 308.608398,71.8544922 Z M344.633789,71.8544922 C343.859046,71.8544922 342.936203,71.638023 341.865234,71.2050781 C340.794265,70.7721333 339.854333,70.054367 339.04541,69.0517578 C338.236487,68.0491486 337.832031,66.704761 337.832031,65.0185547 C337.832031,63.6057872 338.151038,61.8398543 338.789062,59.7207031 C339.427087,57.6015519 340.429681,55.5166118 341.796875,53.4658203 C343.164069,51.3694557 344.912913,49.626309 347.043457,48.2363281 C349.174002,46.8463472 351.640611,46.1513672 354.443359,46.1513672 C355.445969,46.1513672 356.323238,46.2766915 357.075195,46.5273438 C357.827152,46.777996 358.465167,47.0514308 358.989258,47.3476562 C359.285483,47.5299488 359.564615,47.7179352 359.82666,47.9116211 C360.088706,48.105307 360.333658,48.3160796 360.561523,48.5439453 L361.757812,47.9628906 C362.099611,47.8033846 362.458494,47.6609707 362.834473,47.5356445 C363.210451,47.4103184 363.535155,47.3476562 363.808594,47.3476562 C364.674483,47.3476562 365.380857,47.5869117 365.927734,48.0654297 C366.474612,48.5439477 366.748047,49.068031 366.748047,49.6376953 C366.748047,49.8199879 366.736654,49.9453122 366.713867,50.0136719 C366.554361,50.6516959 366.263837,51.5289658 365.842285,52.6455078 C365.420734,53.7620499 364.970706,55.0038994 364.492188,56.3710938 C364.013669,57.6927149 363.609214,58.9687438 363.278809,60.1992188 C362.948403,61.4296937 362.783203,62.4436809 362.783203,63.2412109 C362.783203,63.9248081 362.897134,64.4887673 363.125,64.9331055 C363.352866,65.3774436 363.740232,65.5996094 364.287109,65.5996094 C364.94792,65.5996094 365.836583,65.21794 366.953125,64.4545898 C368.069667,63.6912397 369.220372,62.785487 370.405273,61.7373047 C371.043297,61.1676404 371.704098,60.5581087 372.387695,59.9086914 C373.071292,59.2592741 373.766273,58.5699906 374.472656,57.8408203 C374.837241,57.5445949 375.190428,57.3964844 375.532227,57.3964844 C375.987958,57.3964844 376.369627,57.6186501 376.677246,58.0629883 C376.984865,58.5073264 377.138672,59.002927 377.138672,59.5498047 C377.138672,60.1878287 376.922203,60.7233051 376.489258,61.15625 C375.577795,61.9993532 374.643559,62.8994093 373.686523,63.8564453 C372.729487,64.8134813 371.407886,65.9869722 369.72168,67.3769531 C368.217766,68.607428 366.668302,69.6612912 365.073242,70.5385742 C363.478182,71.4158573 362.04265,71.8544922 360.766602,71.8544922 C359.171542,71.8544922 358.009444,71.2335674 357.280273,69.9916992 C356.551103,68.749831 356.186523,67.4225331 356.186523,66.0097656 C356.186523,64.9843699 356.334634,64.0729207 356.630859,63.2753906 C355.69661,64.5286521 354.591478,65.8217707 353.31543,67.1547852 C352.039382,68.4877996 350.660815,69.6043249 349.179688,70.5043945 C347.69856,71.4044641 346.183276,71.8544922 344.633789,71.8544922 Z M347.368164,65.8388672 C348.097334,65.8388672 349.01448,65.3717495 350.119629,64.4375 C351.224778,63.5032505 352.290034,62.4095115 353.31543,61.15625 C354.454758,59.7890557 355.354814,58.5472061 356.015625,57.4306641 C356.676436,56.314122 357.006836,55.5621764 357.006836,55.1748047 C357.006836,54.3089149 356.505539,53.6196315 355.50293,53.1069336 C354.500321,52.5942357 353.600264,52.3378906 352.802734,52.3378906 C351.389967,52.3378906 350.051276,52.7936152 348.786621,53.7050781 C347.521966,54.616541 346.490889,55.7843353 345.693359,57.2084961 C344.895829,58.6326569 344.49707,60.1080653 344.49707,61.6347656 C344.49707,62.5234419 344.66227,63.4462843 344.992676,64.4033203 C345.323081,65.3603563 346.114903,65.8388672 347.368164,65.8388672 Z M372.695312,71.8886719 C371.874996,71.8886719 371.225588,71.6266302 370.74707,71.1025391 C370.268552,70.5784479 370.029297,69.9518266 370.029297,69.2226562 C370.029297,68.6302054 370.348304,67.5136801 370.986328,65.8730469 C371.624352,64.2324137 372.364905,62.4778739 373.208008,60.609375 C374.119471,58.6269432 375.002437,56.7015067 375.856934,54.8330078 C376.71143,52.9645089 377.38932,51.4378314 377.890625,50.2529297 C378.300783,49.2731071 378.841956,48.5439477 379.51416,48.0654297 C380.186364,47.5869117 380.852861,47.3476562 381.513672,47.3476562 C382.083336,47.3476562 382.59033,47.5584289 383.034668,47.9799805 C383.479006,48.4015321 383.701172,49.0110637 383.701172,49.8085938 C383.701172,50.3782581 383.564454,51.0276656 383.291016,51.7568359 C384.111332,51.0048791 385.005692,50.1902713 385.974121,49.3129883 C386.94255,48.4357052 388.064772,47.6894562 389.34082,47.0742188 C390.616868,46.4589813 392.109366,46.1513672 393.818359,46.1513672 C395.094407,46.1513672 396.210933,46.4817675 397.167969,47.1425781 C398.125005,47.8033887 398.649088,48.9085209 398.740234,50.4580078 C399.811203,49.3870389 401.053053,48.4015344 402.46582,47.5014648 C403.878588,46.6013952 405.587555,46.1513672 407.592773,46.1513672 C409.119474,46.1513672 410.452468,46.4988572 411.591797,47.1938477 C412.731125,47.8888381 413.300781,49.1022049 413.300781,50.8339844 C413.300781,52.2011787 412.987471,53.4999938 412.36084,54.7304688 C411.734209,55.9609437 410.999353,57.0888621 410.15625,58.1142578 C409.837238,58.5016295 409.353031,59.0712853 408.703613,59.8232422 C408.054196,60.5751991 407.461754,61.3841103 406.92627,62.25 C406.390785,63.1158897 406.123047,63.9248009 406.123047,64.6767578 C406.123047,65.1780624 406.276854,65.4970696 406.584473,65.6337891 C406.892091,65.7705085 407.296547,65.8388672 407.797852,65.8388672 C408.754888,65.8388672 409.785965,65.5597359 410.891113,65.0014648 C411.996262,64.4431938 413.090001,63.7539104 414.172363,62.9335938 C415.254725,62.1132771 416.245926,61.2701866 417.145996,60.4042969 C418.046066,59.5384071 418.780922,58.7978546 419.350586,58.1826172 C419.624025,57.8863917 419.965818,57.7382812 420.375977,57.7382812 C420.786135,57.7382812 421.156411,57.9205711 421.486816,58.2851562 C421.817222,58.6497414 421.982422,59.1282522 421.982422,59.7207031 C421.982422,60.1764346 421.845704,60.6777316 421.572266,61.2246094 C421.298827,61.7714871 420.831709,62.3069635 420.170898,62.8310547 C418.598625,64.357755 416.940927,65.8103772 415.197754,67.1889648 C413.454581,68.5675525 411.694345,69.6897743 409.916992,70.5556641 C408.13964,71.4215538 406.3851,71.8544922 404.65332,71.8544922 C402.967114,71.8544922 401.605637,71.4557332 400.568848,70.6582031 C399.532059,69.8606731 399.013672,68.5960373 399.013672,66.8642578 C399.013672,65.3147709 399.395341,63.8621487 400.158691,62.5063477 C400.922042,61.1505466 401.787918,59.8859108 402.756348,58.7124023 C403.724777,57.5388939 404.516598,56.4622445 405.131836,55.4824219 C405.359702,55.1178367 405.541992,54.7703467 405.678711,54.4399414 C405.81543,54.1095361 405.883789,53.7734392 405.883789,53.4316406 C405.883789,52.5885375 405.48503,52.1669922 404.6875,52.1669922 C403.343092,52.1669922 402.032884,52.5828409 400.756836,53.4145508 C399.480788,54.2462607 398.307297,55.3001238 397.236328,56.5761719 C396.119786,57.8750065 395.134282,59.208001 394.279785,60.5751953 C393.425289,61.9423896 392.64486,63.1842392 391.938477,64.3007812 C391.505532,65.0983113 391.0612,66.0952089 390.605469,67.2915039 C390.149737,68.487799 389.597171,69.5530552 388.947754,70.4873047 C388.298337,71.4215542 387.472336,71.8886719 386.469727,71.8886719 C385.877276,71.8886719 385.29053,71.6949889 384.709473,71.3076172 C384.128415,70.9202455 383.815104,70.4303415 383.769531,69.8378906 C383.769531,68.3567634 384.225256,66.7731204 385.136719,65.0869141 C386.048182,63.4007077 387.102045,61.7259198 388.29834,60.0625 C389.494635,58.3990802 390.514319,56.8724028 391.357422,55.4824219 C391.585288,55.1178367 391.767577,54.7703467 391.904297,54.4399414 C392.041016,54.1095361 392.109375,53.7734392 392.109375,53.4316406 C392.109375,52.5885375 391.710616,52.1669922 390.913086,52.1669922 C389.568678,52.1669922 388.25847,52.5828409 386.982422,53.4145508 C385.706374,54.2462607 384.532883,55.3001238 383.461914,56.5761719 C382.345372,57.8750065 381.359868,59.208001 380.505371,60.5751953 C379.650875,61.9423896 378.870446,63.1842392 378.164062,64.3007812 C377.731118,65.0983113 377.286786,66.0952089 376.831055,67.2915039 C376.375323,68.487799 375.822757,69.5530552 375.17334,70.4873047 C374.523923,71.4215542 373.697922,71.8886719 372.695312,71.8886719 Z" id="KayceeIngram" stroke="#000000" stroke-width="7"></path>
            <path d="M46.0400391,73.8369141 C45.2880822,73.8369141 44.5760125,73.5691759 43.9038086,73.0336914 C43.2316047,72.498207 42.6562524,71.8203166 42.1777344,71 C41.2662715,69.7923117 40.4915396,68.7270554 39.8535156,67.8041992 C39.2154916,66.881343 38.6002634,65.9300179 38.0078125,64.9501953 C37.3697885,63.8792264 36.5494842,62.5861078 35.546875,61.0708008 C34.5442658,59.5554937 33.177092,57.5218227 31.4453125,54.9697266 C30.2376242,57.4762495 28.9445056,59.8688037 27.565918,62.1474609 C26.1873303,64.4261182 24.7347082,66.4313064 23.2080078,68.1630859 C21.6813075,69.8948654 20.0862713,71.2677358 18.4228516,72.2817383 C16.7594318,73.2957407 15.0504645,73.8027344 13.2958984,73.8027344 C12.042637,73.8027344 10.8919323,73.4837271 9.84375,72.8457031 C9.25129912,72.5950508 8.58480188,71.9171605 7.84423828,70.8120117 C7.10367468,69.706863 6.73339844,68.5390687 6.73339844,67.3085938 C6.73339844,66.3743443 7.05240566,65.4742882 7.69042969,64.6083984 C8.10058799,64.1298804 8.53352637,63.645673 8.98925781,63.1557617 C9.44498926,62.6658504 9.99185879,62.4208984 10.6298828,62.4208984 C10.9261083,62.4208984 11.1881499,62.5006502 11.4160156,62.6601562 C11.7122411,62.8196623 12.0027655,63.2639937 12.2875977,63.9931641 C12.5724298,64.7223344 12.9085267,65.4173144 13.2958984,66.078125 C13.6832702,66.7389356 14.1503879,67.0693359 14.6972656,67.0693359 C15.4720091,67.0693359 16.2923134,66.6876666 17.1582031,65.9243164 C18.0240929,65.1609662 18.9013627,64.1184962 19.7900391,62.796875 C20.6787154,61.4752538 21.5787715,59.9314867 22.4902344,58.1655273 C23.4016973,56.399568 24.3017534,54.5140074 25.1904297,52.5087891 C26.3069717,49.956693 27.4064073,47.2223453 28.4887695,44.3056641 C29.5711317,41.3889828 30.5737259,38.5862765 31.496582,35.8974609 C32.4194382,33.2086454 33.1770804,30.9414155 33.7695312,29.0957031 L34.8974609,25.4726562 L35.4443359,23.6611328 C35.6494151,22.9547491 36.0082982,22.4420589 36.5209961,22.1230469 C37.033694,21.8040349 37.5862601,21.6445312 38.1787109,21.6445312 C39.0446007,21.6445312 39.7054014,21.9122695 40.1611328,22.4477539 C40.6168643,22.9832384 40.8447266,23.9573497 40.8447266,25.3701172 L40.7763672,26.8740234 C40.7080075,27.534834 40.5542004,28.4519798 40.3149414,29.6254883 C40.0756824,30.7989968 39.7509786,32.1490809 39.3408203,33.6757812 C38.930662,35.2024816 38.4407581,36.8772695 37.8710938,38.7001953 C37.3014294,40.5231211 36.663415,42.4143782 35.9570312,44.3740234 C40.6738517,40.3408001 44.7013179,36.9798312 48.0395508,34.2910156 C51.3777836,31.6022001 54.0722554,29.51726 56.1230469,28.0361328 C59.6549656,25.5068233 61.9563749,24.2421875 63.0273438,24.2421875 C63.7337275,24.2421875 64.2464177,24.5554982 64.5654297,25.1821289 C64.8844417,25.8087596 65.0439453,26.2701808 65.0439453,26.5664062 C65.0439453,27.4095094 64.6565794,28.0817032 63.8818359,28.5830078 C61.5120324,30.2464276 58.9827608,32.1376847 56.2939453,34.2568359 C53.6051298,36.3759872 50.9619271,38.5292859 48.3642578,40.7167969 C45.8121617,42.8587347 43.4765731,44.8183505 41.3574219,46.5957031 C39.2382707,48.3730558 37.5406965,49.7516227 36.2646484,50.7314453 C37.4267636,52.3037188 38.5888614,53.8360928 39.7509766,55.3286133 C40.9130917,56.8211338 42.0068308,58.2395766 43.0322266,59.5839844 C44.0576223,60.9739653 45.0545199,62.329746 46.0229492,63.6513672 C46.9913785,64.9729884 47.9085243,66.3059829 48.7744141,67.6503906 C49.3212918,68.5162804 49.5947266,69.370764 49.5947266,70.2138672 C49.5947266,71.3987689 49.1503951,72.298825 48.2617188,72.9140625 C47.3730424,73.5293 46.6324899,73.8369141 46.0400391,73.8369141 Z M63.4716797,71.8544922 C62.6969362,71.8544922 61.7740939,71.638023 60.703125,71.2050781 C59.6321561,70.7721333 58.6922241,70.054367 57.8833008,69.0517578 C57.0743775,68.0491486 56.6699219,66.704761 56.6699219,65.0185547 C56.6699219,63.6057872 56.9889291,61.8398543 57.6269531,59.7207031 C58.2649771,57.6015519 59.2675713,55.5166118 60.6347656,53.4658203 C62.00196,51.3694557 63.7508031,49.626309 65.8813477,48.2363281 C68.0118922,46.8463472 70.4785016,46.1513672 73.28125,46.1513672 C74.2838592,46.1513672 75.1611291,46.2766915 75.9130859,46.5273438 C76.6650428,46.777996 77.3030573,47.0514308 77.8271484,47.3476562 C78.1233739,47.5299488 78.4025052,47.7179352 78.6645508,47.9116211 C78.9265964,48.105307 79.1715483,48.3160796 79.3994141,48.5439453 L80.5957031,47.9628906 C80.9375017,47.8033846 81.2963848,47.6609707 81.6723633,47.5356445 C82.0483417,47.4103184 82.3730455,47.3476562 82.6464844,47.3476562 C83.5123741,47.3476562 84.2187473,47.5869117 84.765625,48.0654297 C85.3125027,48.5439477 85.5859375,49.068031 85.5859375,49.6376953 C85.5859375,49.8199879 85.5745444,49.9453122 85.5517578,50.0136719 C85.3922518,50.6516959 85.1017274,51.5289658 84.6801758,52.6455078 C84.2586242,53.7620499 83.8085961,55.0038994 83.3300781,56.3710938 C82.8515601,57.6927149 82.4471045,58.9687438 82.1166992,60.1992188 C81.7862939,61.4296937 81.6210938,62.4436809 81.6210938,63.2412109 C81.6210938,63.9248081 81.7350249,64.4887673 81.9628906,64.9331055 C82.1907563,65.3774436 82.5781223,65.5996094 83.125,65.5996094 C83.7858106,65.5996094 84.6744736,65.21794 85.7910156,64.4545898 C86.9075577,63.6912397 88.0582623,62.785487 89.2431641,61.7373047 C89.8811881,61.1676404 90.5419888,60.5581087 91.2255859,59.9086914 C91.9091831,59.2592741 92.6041631,58.5699906 93.3105469,57.8408203 C93.675132,57.5445949 94.0283186,57.3964844 94.3701172,57.3964844 C94.8258486,57.3964844 95.207518,57.6186501 95.5151367,58.0629883 C95.8227554,58.5073264 95.9765625,59.002927 95.9765625,59.5498047 C95.9765625,60.1878287 95.7600933,60.7233051 95.3271484,61.15625 C94.4156855,61.9993532 93.4814501,62.8994093 92.5244141,63.8564453 C91.567378,64.8134813 90.2457767,65.9869722 88.5595703,67.3769531 C87.0556565,68.607428 85.5061929,69.6612912 83.9111328,70.5385742 C82.3160728,71.4158573 80.8805402,71.8544922 79.6044922,71.8544922 C78.0094321,71.8544922 76.8473344,71.2335674 76.1181641,69.9916992 C75.3889937,68.749831 75.0244141,67.4225331 75.0244141,66.0097656 C75.0244141,64.9843699 75.1725246,64.0729207 75.46875,63.2753906 C74.5345005,64.5286521 73.4293684,65.8217707 72.1533203,67.1547852 C70.8772723,68.4877996 69.4987053,69.6043249 68.0175781,70.5043945 C66.5364509,71.4044641 65.0211666,71.8544922 63.4716797,71.8544922 Z M66.2060547,65.8388672 C66.935225,65.8388672 67.8523708,65.3717495 68.9575195,64.4375 C70.0626683,63.5032505 71.1279246,62.4095115 72.1533203,61.15625 C73.2926489,59.7890557 74.192705,58.5472061 74.8535156,57.4306641 C75.5143262,56.314122 75.8447266,55.5621764 75.8447266,55.1748047 C75.8447266,54.3089149 75.3434295,53.6196315 74.3408203,53.1069336 C73.3382111,52.5942357 72.438155,52.3378906 71.640625,52.3378906 C70.2278575,52.3378906 68.8891665,52.7936152 67.6245117,53.7050781 C66.359857,54.616541 65.32878,55.7843353 64.53125,57.2084961 C63.73372,58.6326569 63.3349609,60.1080653 63.3349609,61.6347656 C63.3349609,62.5234419 63.5001611,63.4462843 63.8305664,64.4033203 C64.1609717,65.3603563 64.9527932,65.8388672 66.2060547,65.8388672 Z M96.3183594,91.2685547 C95.4068965,91.2685547 94.666344,90.9666371 94.0966797,90.362793 C93.5270154,89.7589488 93.2421875,88.9443411 93.2421875,87.9189453 C93.2421875,86.9619093 93.3618152,86.0105842 93.6010742,85.0649414 C93.8403332,84.1192987 94.267575,83.0768286 94.8828125,81.9375 C95.4752634,80.7981714 96.2670849,79.527839 97.2583008,78.1264648 C98.2495167,76.7250906 99.4970628,75.0787855 101.000977,73.1875 L107.836914,59.3447266 C104.418928,63.4007364 101.320001,66.4996638 98.5400391,68.6416016 C95.7600772,70.7835394 93.162447,71.8544922 90.7470703,71.8544922 C89.9723269,71.8544922 89.3115262,71.6778989 88.7646484,71.324707 C88.2177707,70.9715152 87.9443359,70.3847697 87.9443359,69.5644531 C87.9443359,68.4251245 88.2177707,67.1377025 88.7646484,65.7021484 C89.2203799,64.5856064 89.7045873,63.5431364 90.2172852,62.574707 C90.729983,61.6062777 91.2597629,60.5865939 91.8066406,59.515625 C92.3763049,58.3762964 93.0371056,56.9749432 93.7890625,55.3115234 C94.5410194,53.6481037 95.3727168,51.6543085 96.2841797,49.3300781 C96.7399111,48.4414018 97.3323531,47.7976908 98.0615234,47.3989258 C98.7906938,47.0001608 99.4970669,46.8007812 100.180664,46.8007812 C100.887048,46.8007812 101.485186,46.9659814 101.975098,47.2963867 C102.465009,47.626792 102.709961,48.065427 102.709961,48.6123047 C102.709961,48.9085301 102.664388,49.1477855 102.573242,49.3300781 L96.3183594,62.3525391 C95.9993474,63.0361362 95.8398438,63.5602195 95.8398438,63.9248047 C95.8398438,64.2666033 95.9765611,64.4375 96.25,64.4375 C96.5006523,64.4375 96.8196595,64.3121757 97.2070312,64.0615234 C97.594403,63.8108711 97.9589827,63.5260433 98.3007812,63.2070312 L112.416992,49.3300781 C113.556321,48.4186152 114.433591,47.8603526 115.048828,47.6552734 C115.664066,47.4501943 116.267901,47.3476562 116.860352,47.3476562 C117.33887,47.3476562 117.680663,47.5242495 117.885742,47.8774414 C118.090821,48.2306333 118.193359,48.6009095 118.193359,48.9882812 C118.193359,49.2845067 118.136394,49.5807277 118.022461,49.8769531 L110.366211,65.8388672 C111.459966,65.0185506 112.713209,64.215336 114.125977,63.4291992 C115.538744,62.6430625 116.917311,61.9309928 118.261719,61.2929688 C119.606127,60.6549447 120.745438,60.1479511 121.679688,59.7719727 C122.613937,59.3959942 123.13802,59.2080078 123.251953,59.2080078 C123.821617,59.2080078 124.322915,59.424477 124.755859,59.8574219 C125.188804,60.2903667 125.405273,60.8372363 125.405273,61.4980469 C125.405273,62.0904978 125.183108,62.7171191 124.73877,63.3779297 C124.294431,64.0387403 123.514003,64.6767547 122.397461,65.2919922 C120.961907,66.0895222 119.60043,66.8300747 118.312988,67.5136719 C117.025547,68.197269 115.948898,68.7783179 115.083008,69.2568359 L112.65625,70.6240234 C111.562495,71.2620475 110.554204,71.9342413 109.631348,72.640625 C108.708491,73.3470087 107.779953,74.1331337 106.845703,74.9990234 C105.843094,77.6194792 104.903162,79.9322816 104.025879,81.9375 C103.148596,83.9427184 102.607423,85.1389955 102.402344,85.5263672 C100.556631,89.3545113 98.5286569,91.2685547 96.3183594,91.2685547 Z M127.319336,71.8544922 C124.995106,71.8544922 123.206386,71.1766018 121.953125,69.8208008 C120.699864,68.4649997 120.073242,66.8414808 120.073242,64.9501953 C120.073242,63.4007084 120.591629,61.5607203 121.628418,59.4301758 C122.665207,57.2996313 124.038077,55.2317809 125.74707,53.2265625 C127.47885,51.175771 129.421376,49.4838934 131.574707,48.1508789 C133.728038,46.8178644 135.87564,46.1513672 138.017578,46.1513672 C139.06576,46.1513672 139.937334,46.3906226 140.632324,46.8691406 C141.327315,47.3476586 141.674805,48.1565698 141.674805,49.2958984 C141.674805,50.2529345 141.526694,51.3067976 141.230469,52.4575195 C140.934243,53.6082414 140.455732,54.5994425 139.794922,55.4311523 C139.134111,56.2628622 138.245448,56.6787109 137.128906,56.6787109 C136.673175,56.6787109 136.38265,56.6103522 136.257324,56.4736328 C136.131998,56.3369134 136.069336,56.097658 136.069336,55.7558594 L136.103516,54.8330078 L136.103516,53.7050781 C136.103516,53.2949198 136.04655,52.9474298 135.932617,52.6625977 C135.818684,52.3777655 135.533856,52.2353516 135.078125,52.2353516 C134.348955,52.2353516 133.483078,52.628414 132.480469,53.4145508 C131.47786,54.2006875 130.475265,55.2431576 129.472656,56.5419922 C128.538407,57.7952537 127.763675,59.0427998 127.148438,60.284668 C126.5332,61.5265362 126.225586,62.5690062 126.225586,63.4121094 C126.225586,64.2096394 126.504717,64.8362607 127.062988,65.2919922 C127.621259,65.7477236 128.378901,65.9755859 129.335938,65.9755859 C130.839851,65.9755859 132.491853,65.6223994 134.291992,64.9160156 C136.092131,64.2096319 137.801099,63.3893276 139.418945,62.4550781 C140.991219,61.5436152 142.375482,60.6891316 143.571777,59.8916016 C144.768072,59.0940715 145.480142,58.6383469 145.708008,58.5244141 C146.118166,58.3421215 146.45996,58.2509766 146.733398,58.2509766 C147.303063,58.2509766 147.690429,58.4560526 147.895508,58.8662109 C148.100587,59.2763692 148.203125,59.6295558 148.203125,59.9257812 C148.203125,60.1308604 148.180339,60.3758124 148.134766,60.6606445 C148.089192,60.9454767 147.918296,61.2701805 147.62207,61.6347656 C147.303058,62.0221374 146.471361,62.7512967 145.126953,63.8222656 C143.782545,64.8932345 142.30144,65.9641874 140.683594,67.0351562 C138.746735,68.3339909 136.582043,69.4619093 134.189453,70.4189453 C131.796863,71.3759813 129.506847,71.8544922 127.319336,71.8544922 Z M150.458984,71.8544922 C148.636059,71.8544922 147.080898,71.4044641 145.793457,70.5043945 C144.506016,69.6043249 143.526208,68.4194409 142.854004,66.949707 C142.1818,65.4799731 141.845703,63.9020267 141.845703,62.2158203 C141.845703,60.7346931 142.272945,59.0769948 143.127441,57.2426758 C143.981938,55.4083567 145.206698,53.6481204 146.801758,51.9619141 C148.396818,50.2757077 150.305165,48.8800511 152.526855,47.7749023 C154.748546,46.6697536 157.169583,46.1171875 159.790039,46.1171875 C161.681325,46.1171875 163.094071,46.5729121 164.02832,47.484375 C164.96257,48.3958379 165.429688,49.6604737 165.429688,51.2783203 C165.429688,52.2353563 165.179039,53.2379505 164.677734,54.2861328 C164.17643,55.3343151 163.310553,56.3938749 162.080078,57.4648438 C160.849603,58.5585992 159.203298,59.669428 157.141113,60.7973633 C155.078928,61.9252986 152.498388,63.0589136 149.399414,64.1982422 C149.650066,65.6110097 150.789378,66.3173828 152.817383,66.3173828 C154.389656,66.3173828 156.08723,65.992679 157.910156,65.3432617 C159.733082,64.6938444 161.487622,63.9475954 163.173828,63.1044922 C164.860034,62.2841756 166.30696,61.5094438 167.514648,60.7802734 C168.722337,60.0511031 169.440103,59.640951 169.667969,59.5498047 C169.873048,59.4130853 170.061034,59.3333334 170.231934,59.3105469 C170.402833,59.2877603 170.55664,59.2763672 170.693359,59.2763672 C171.240237,59.2763672 171.621906,59.4871398 171.838379,59.9086914 C172.054851,60.330243 172.163086,60.677733 172.163086,60.9511719 C172.163086,61.156251 172.1403,61.401203 172.094727,61.6860352 C172.049153,61.9708673 171.878257,62.2955711 171.582031,62.6601562 C171.285806,62.9563817 170.419929,63.6057893 168.984375,64.6083984 C167.548821,65.6110076 166.01075,66.5794224 164.370117,67.5136719 C162.364899,68.6302139 160.131848,69.6328081 157.670898,70.5214844 C155.209949,71.4101607 152.806001,71.8544922 150.458984,71.8544922 Z M148.886719,60.2675781 C150.367846,59.4928347 151.877434,58.587082 153.415527,57.550293 C154.953621,56.5135039 156.121415,55.7558618 156.918945,55.2773438 C157.989914,54.5937466 158.696287,53.9899115 159.038086,53.4658203 C159.425458,52.896156 159.619141,52.4176452 159.619141,52.0302734 C159.619141,51.6884749 159.510906,51.4150401 159.294434,51.2099609 C159.077961,51.0048818 158.833009,50.8795575 158.55957,50.8339844 L158.251953,50.7998047 L157.944336,50.7998047 C156.691074,50.7998047 155.534673,51.1586878 154.475098,51.8764648 C153.415522,52.5942419 152.521163,53.4886014 151.791992,54.5595703 C151.017249,55.6761124 150.396324,56.724279 149.929199,57.7041016 C149.462074,58.6839242 149.114584,59.5384078 148.886719,60.2675781 Z M174.521484,71.8544922 C172.698559,71.8544922 171.143398,71.4044641 169.855957,70.5043945 C168.568516,69.6043249 167.588708,68.4194409 166.916504,66.949707 C166.2443,65.4799731 165.908203,63.9020267 165.908203,62.2158203 C165.908203,60.7346931 166.335445,59.0769948 167.189941,57.2426758 C168.044438,55.4083567 169.269198,53.6481204 170.864258,51.9619141 C172.459318,50.2757077 174.367665,48.8800511 176.589355,47.7749023 C178.811046,46.6697536 181.232083,46.1171875 183.852539,46.1171875 C185.743825,46.1171875 187.156571,46.5729121 188.09082,47.484375 C189.02507,48.3958379 189.492188,49.6604737 189.492188,51.2783203 C189.492188,52.2353563 189.241539,53.2379505 188.740234,54.2861328 C188.23893,55.3343151 187.373053,56.3938749 186.142578,57.4648438 C184.912103,58.5585992 183.265798,59.669428 181.203613,60.7973633 C179.141428,61.9252986 176.560888,63.0589136 173.461914,64.1982422 C173.712566,65.6110097 174.851878,66.3173828 176.879883,66.3173828 C178.452156,66.3173828 180.14973,65.992679 181.972656,65.3432617 C183.795582,64.6938444 185.550122,63.9475954 187.236328,63.1044922 C188.922534,62.2841756 190.36946,61.5094438 191.577148,60.7802734 C192.784837,60.0511031 193.502603,59.640951 193.730469,59.5498047 C193.935548,59.4130853 194.123534,59.3333334 194.294434,59.3105469 C194.465333,59.2877603 194.61914,59.2763672 194.755859,59.2763672 C195.302737,59.2763672 195.684406,59.4871398 195.900879,59.9086914 C196.117351,60.330243 196.225586,60.677733 196.225586,60.9511719 C196.225586,61.156251 196.2028,61.401203 196.157227,61.6860352 C196.111653,61.9708673 195.940757,62.2955711 195.644531,62.6601562 C195.348306,62.9563817 194.482429,63.6057893 193.046875,64.6083984 C191.611321,65.6110076 190.07325,66.5794224 188.432617,67.5136719 C186.427399,68.6302139 184.194348,69.6328081 181.733398,70.5214844 C179.272449,71.4101607 176.868501,71.8544922 174.521484,71.8544922 Z M172.949219,60.2675781 C174.430346,59.4928347 175.939934,58.587082 177.478027,57.550293 C179.016121,56.5135039 180.183915,55.7558618 180.981445,55.2773438 C182.052414,54.5937466 182.758787,53.9899115 183.100586,53.4658203 C183.487958,52.896156 183.681641,52.4176452 183.681641,52.0302734 C183.681641,51.6884749 183.573406,51.4150401 183.356934,51.2099609 C183.140461,51.0048818 182.895509,50.8795575 182.62207,50.8339844 L182.314453,50.7998047 L182.006836,50.7998047 C180.753574,50.7998047 179.597173,51.1586878 178.537598,51.8764648 C177.478022,52.5942419 176.583663,53.4886014 175.854492,54.5595703 C175.079749,55.6761124 174.458824,56.724279 173.991699,57.7041016 C173.524574,58.6839242 173.177084,59.5384078 172.949219,60.2675781 Z M234.848633,71.2050781 C234.324542,71.2050781 233.834638,71.1367194 233.378906,71 C232.854815,70.840494 232.387697,70.7493491 231.977539,70.7265625 C230.473625,70.5670565 229.134934,70.4588219 227.961426,70.4018555 C226.787917,70.344889 225.688482,70.3164062 224.663086,70.3164062 C223.478184,70.3164062 222.156583,70.344889 220.698242,70.4018555 C219.239902,70.4588219 217.838548,70.4873047 216.494141,70.4873047 C215.742184,70.4873047 215.161135,70.2708355 214.750977,69.8378906 C214.340818,69.4049458 214.135742,68.8694693 214.135742,68.2314453 C214.135742,67.980793 214.169922,67.7187514 214.238281,67.4453125 C214.397787,66.9212213 215.326326,66.4085312 217.023926,65.9072266 C218.721525,65.405922 220.664052,65.0755216 222.851562,64.9160156 C224.651702,61.0195118 226.503083,57.1857285 228.405762,53.4145508 C230.308441,49.6433731 232.250967,45.9235209 234.233398,42.2548828 C236.170257,38.677391 237.862135,35.6582154 239.309082,33.1972656 C240.756029,30.7363158 241.878251,28.9817761 242.675781,27.9335938 L239.291992,28.7197266 C238.745114,28.8792326 238.164066,29.0273431 237.548828,29.1640625 C236.933591,29.3007819 236.284183,29.4374993 235.600586,29.5742188 C235.349934,29.665365 235.076499,29.7109375 234.780273,29.7109375 C234.119463,29.7109375 233.606773,29.4773786 233.242188,29.0102539 C232.877602,28.5431292 232.695312,27.97917 232.695312,27.3183594 C232.695312,26.8626279 233.270665,26.3157584 234.421387,25.6777344 C235.572109,25.0397104 237.127269,24.413089 239.086914,23.7978516 C240.9782,23.2054007 243.137195,22.7041036 245.563965,22.2939453 C247.990735,21.883787 250.51431,21.6787109 253.134766,21.6787109 C254.684253,21.6787109 255.937495,21.8382146 256.894531,22.1572266 C257.783208,22.4990251 258.227539,23.0686809 258.227539,23.8662109 C258.227539,24.7093141 257.794601,25.4726528 256.928711,26.15625 C256.062821,26.8398472 255.083013,27.1816406 253.989258,27.1816406 C253.761392,27.1816406 253.465171,27.1588544 253.100586,27.1132812 C252.963867,27.0904947 252.821453,27.0791016 252.67334,27.0791016 L252.211914,27.0791016 C251.368811,27.0791016 250.582686,27.0961912 249.853516,27.1303711 C249.124345,27.164551 248.429365,27.2044269 247.768555,27.25 C247.814128,27.569012 247.836914,27.7399087 247.836914,27.7626953 C247.836914,28.0817073 247.779948,28.3836249 247.666016,28.668457 C247.552083,28.9532892 247.438152,29.2210274 247.324219,29.4716797 L238.095703,48.6123047 C236.022125,52.8733937 234.353034,56.2628455 233.088379,58.7807617 C231.823724,61.298678 230.792647,63.3665284 229.995117,64.984375 C232.319348,65.1894542 234.353019,65.565427 236.096191,66.1123047 C237.839364,66.6591824 238.710938,67.4453074 238.710938,68.4707031 C238.710938,69.1770869 238.295089,69.8094048 237.463379,70.3676758 C236.631669,70.9259468 235.760096,71.2050781 234.848633,71.2050781 Z M245.273438,71.8544922 C244.475907,71.8544922 243.849286,71.6038437 243.393555,71.1025391 C242.937823,70.6012345 242.709961,69.9860063 242.709961,69.2568359 C242.709961,68.6643851 243.051754,67.5535563 243.735352,65.9243164 C244.418949,64.2950765 245.216467,62.5462333 246.12793,60.6777344 C247.290045,58.2395711 248.315425,56.1261483 249.204102,54.3374023 C250.092778,52.5486564 250.753579,51.1871792 251.186523,50.2529297 C251.642255,49.2731071 252.211911,48.5439477 252.895508,48.0654297 C253.579105,47.5869117 254.251299,47.3476562 254.912109,47.3476562 C255.458987,47.3476562 255.948891,47.5470358 256.381836,47.9458008 C256.814781,48.3445658 257.03125,48.9313112 257.03125,49.7060547 C257.03125,50.0022801 256.997071,50.3212874 256.928711,50.6630859 C256.860351,51.0048845 256.735027,51.3694642 256.552734,51.7568359 C257.259118,50.8681596 258.307285,49.9965863 259.697266,49.1420898 C261.087247,48.2875934 262.591138,47.5755237 264.208984,47.0058594 C265.826831,46.4361951 267.319329,46.1513672 268.686523,46.1513672 C269.894212,46.1513672 270.902502,46.4418916 271.711426,47.0229492 C272.520349,47.6040068 272.924805,48.5895113 272.924805,49.9794922 C272.924805,51.1643939 272.662763,52.4461194 272.138672,53.824707 C271.614581,55.2032947 270.987959,56.5305926 270.258789,57.8066406 C269.484046,59.1510484 268.760583,60.3302358 268.088379,61.3442383 C267.416175,62.3582407 266.897788,63.1956347 266.533203,63.8564453 C266.236978,64.2210305 266.088867,64.6425757 266.088867,65.1210938 C266.088867,65.5768252 266.328123,65.8046875 266.806641,65.8046875 C266.966147,65.8046875 267.148436,65.7875978 267.353516,65.753418 C267.558595,65.7192381 267.809243,65.5996104 268.105469,65.3945312 C269.814462,64.7565072 271.517732,63.947596 273.215332,62.9677734 C274.912932,61.9879508 276.473788,60.9739636 277.897949,59.9257812 C279.32211,58.8775989 280.467118,57.9547566 281.333008,57.1572266 C281.697593,56.8610011 282.05078,56.7128906 282.392578,56.7128906 C283.212895,56.7128906 283.623047,57.2369739 283.623047,58.2851562 C283.623047,58.99154 283.400881,59.7776649 282.956543,60.6435547 C282.512205,61.5094444 281.811528,62.3183556 280.854492,63.0703125 C279.191072,64.2552143 277.635912,65.3546499 276.188965,66.3686523 C274.742018,67.3826548 273.209644,68.2998006 271.591797,69.1201172 C269.97395,69.9404338 268.048514,70.6695932 265.81543,71.3076172 C264.653315,71.6722023 263.662113,71.8544922 262.841797,71.8544922 C260.517567,71.8544922 259.355469,70.5784633 259.355469,68.0263672 C259.355469,67.8668612 259.361165,67.7130541 259.372559,67.5649414 C259.383952,67.4168287 259.401042,67.2516285 259.423828,67.0693359 C259.492188,66.0439402 259.856768,64.8533596 260.517578,63.4975586 C261.178389,62.1417575 261.896155,60.8030665 262.670898,59.4814453 C263.445642,58.2053973 264.140622,57.0091202 264.755859,55.8925781 C265.371097,54.7760361 265.678711,53.9443387 265.678711,53.3974609 C265.678711,52.5771443 265.291345,52.1669922 264.516602,52.1669922 C263.081048,52.1669922 261.708177,52.5885375 260.397949,53.4316406 C259.087721,54.2747438 257.857265,55.3400001 256.706543,56.6274414 C255.555821,57.9148827 254.501958,59.2592703 253.544922,60.6606445 C252.587886,62.0620187 251.744795,63.3323511 251.015625,64.4716797 C250.491534,65.3375694 249.98454,66.3515567 249.494629,67.5136719 C249.004718,68.6757871 248.435062,69.6897743 247.785645,70.5556641 C247.136227,71.4215538 246.298833,71.8544922 245.273438,71.8544922 Z M283.31543,91.3027344 C282.426753,91.3027344 281.726077,90.9951203 281.213379,90.3798828 C280.700681,89.7646454 280.444336,89.0240929 280.444336,88.1582031 C280.444336,87.2467402 280.666502,86.181484 281.11084,84.9624023 C281.555178,83.7433207 282.16471,82.438809 282.939453,81.0488281 C284.511727,78.2460797 286.699205,75.2155111 289.501953,71.9570312 L293.740234,66.5566406 C291.985668,68.1744873 290.322273,69.3194953 288.75,69.9916992 C287.177727,70.6639031 285.867518,71 284.819336,71 C282.99641,71 281.486822,70.2024819 280.290527,68.6074219 C279.094232,67.0123618 278.496094,65.0071735 278.496094,62.5917969 C278.496094,60.0852739 278.980301,57.818044 279.94873,55.7900391 C280.91716,53.7620341 282.164706,52.0302806 283.691406,50.5947266 C285.19532,49.1819591 286.864411,48.08822 288.69873,47.3134766 C290.53305,46.5387331 292.327465,46.1513672 294.082031,46.1513672 C295.08464,46.1513672 295.96191,46.2766915 296.713867,46.5273438 C297.465824,46.777996 298.103839,47.0514308 298.62793,47.3476562 C298.924155,47.5299488 299.203286,47.7179352 299.465332,47.9116211 C299.727378,48.105307 299.97233,48.3160796 300.200195,48.5439453 C300.56478,48.293293 300.906574,48.0996101 301.225586,47.9628906 C301.544598,47.8033846 301.897785,47.6609707 302.285156,47.5356445 C302.672528,47.4103184 303.059894,47.3476562 303.447266,47.3476562 C304.449875,47.3476562 305.224607,47.5527323 305.771484,47.9628906 C306.318362,48.3730489 306.591797,48.8629529 306.591797,49.4326172 C306.591797,49.7288426 306.512045,50.0250636 306.352539,50.3212891 L298.354492,65.4628906 L299.003906,64.8818359 C301.692722,63.3095625 303.902986,62.0734094 305.634766,61.1733398 C307.366545,60.2732702 308.745112,59.606773 309.770508,59.1738281 C310.568038,58.8320295 311.228839,58.5870776 311.75293,58.4389648 C312.277021,58.2908521 312.630207,58.2167969 312.8125,58.2167969 C313.336591,58.2167969 313.741047,58.4161764 314.025879,58.8149414 C314.310711,59.2137064 314.453125,59.7093069 314.453125,60.3017578 C314.453125,60.9625684 314.265139,61.6347622 313.88916,62.3183594 C313.513182,63.0019565 312.937829,63.4918605 312.163086,63.7880859 C310.818678,64.4716831 309.206552,65.2293253 307.32666,66.0610352 C305.446768,66.892745 303.487152,67.8611598 301.447754,68.9663086 C299.408356,70.0714573 297.477223,71.3873622 295.654297,72.9140625 L289.023438,84.9111328 C287.975255,87.4176558 287.04102,89.126623 286.220703,90.0380859 C285.468746,90.8811891 284.500331,91.3027344 283.31543,91.3027344 Z M287.348633,65.2578125 C288.055017,65.2578125 288.94368,64.8191776 290.014648,63.9418945 C291.085617,63.0646115 292.110998,62.0335346 293.09082,60.8486328 C294.093429,59.6637311 294.93652,58.5358126 295.620117,57.4648438 C296.303714,56.3938749 296.645508,55.6305361 296.645508,55.1748047 C296.645508,54.1721955 296.172694,53.4202499 295.227051,52.9189453 C294.281408,52.4176407 293.4668,52.1669922 292.783203,52.1669922 C291.347649,52.1669922 289.997565,52.6170202 288.73291,53.5170898 C287.468255,54.4171594 286.442875,55.5906503 285.656738,57.0375977 C284.870602,58.484545 284.477539,60.016919 284.477539,61.6347656 C284.477539,62.4095091 284.637043,63.2070271 284.956055,64.0273438 C285.275067,64.8476604 286.072585,65.2578125 287.348633,65.2578125 Z M308.608398,71.8544922 C307.46907,71.8544922 306.899414,71.2734433 306.899414,70.1113281 C306.899414,69.8606758 306.93929,69.5473652 307.019043,69.1713867 C307.098796,68.7954083 307.263996,68.3795596 307.514648,67.9238281 C307.90202,67.1946578 308.323565,66.3344776 308.779297,65.3432617 C309.235028,64.3520458 309.713539,63.3209689 310.214844,62.25 C310.761721,61.0878848 311.394039,59.7491938 312.111816,58.2338867 C312.829593,56.7185797 313.678381,54.9697365 314.658203,52.9873047 C314.339191,52.7138658 314.071453,52.3777689 313.85498,51.9790039 C313.638508,51.5802389 313.530273,51.0846384 313.530273,50.4921875 C313.530273,49.4212186 313.946122,48.6293971 314.777832,48.1166992 C315.609542,47.6040013 316.60644,47.3476562 317.768555,47.3476562 C318.907883,47.3476562 320.018712,47.5470358 321.101074,47.9458008 C322.183436,48.3445658 322.724609,48.9427043 322.724609,49.7402344 C322.724609,49.8313807 322.650554,50.0421533 322.502441,50.3725586 C322.354329,50.7029639 322.280273,50.9251296 322.280273,51.0390625 C322.280273,51.0846356 322.291667,51.1074219 322.314453,51.1074219 L322.348633,51.1074219 L322.416992,51.0732422 C324.103199,50.0250599 325.914704,49.1363969 327.851562,48.4072266 C329.788421,47.6780562 331.383457,47.3134766 332.636719,47.3134766 C333.662115,47.3134766 334.453936,47.5584285 335.012207,48.0483398 C335.570478,48.5382511 335.849609,49.364252 335.849609,50.5263672 C335.849609,50.7770195 335.838216,51.0447577 335.81543,51.3295898 C335.792643,51.614422 335.747071,51.9163396 335.678711,52.2353516 C335.519205,53.0784547 334.88119,54.1721938 333.764648,55.5166016 C332.648106,56.8610093 331.463222,58.1598245 330.209961,59.4130859 C329.640297,59.9827502 328.95671,60.6606406 328.15918,61.4467773 C327.36165,62.2329141 326.66667,62.9506803 326.074219,63.6000977 C325.481768,64.249515 325.185547,64.6881499 325.185547,64.9160156 C325.185547,65.2350276 325.299478,65.3945312 325.527344,65.3945312 C327.167977,64.6881475 329.025055,63.8165742 331.098633,62.7797852 C333.172211,61.7429961 335.177399,60.7005261 337.114258,59.6523438 C339.051116,58.6041614 340.634759,57.7268916 341.865234,57.0205078 C342.343752,56.7470689 342.753905,56.6103516 343.095703,56.6103516 C344.052739,56.6103516 344.53125,57.1116486 344.53125,58.1142578 C344.53125,58.638349 344.309084,59.2364875 343.864746,59.9086914 C343.420408,60.5808953 342.674159,61.2815719 341.625977,62.0107422 C340.646154,62.6259796 339.307463,63.4747667 337.609863,64.5571289 C335.912264,65.6394911 334.231779,66.6591749 332.568359,67.6162109 C330.927726,68.5504604 329.361173,69.3479785 327.868652,70.0087891 C326.376132,70.6695997 325.128586,71 324.125977,71 C322.553703,71 321.374516,70.6240272 320.588379,69.8720703 C319.802242,69.1201134 319.40918,68.1516986 319.40918,66.9667969 C319.40918,66.7617177 319.420573,66.6250003 319.443359,66.5566406 C319.694012,65.0983 320.218095,63.6855537 321.015625,62.3183594 C321.813155,60.951165 322.644852,59.6979224 323.510742,58.5585938 C324.376632,57.4420517 325.145667,56.4052782 325.817871,55.4482422 C326.490075,54.4912062 326.826172,53.6709019 326.826172,52.9873047 C326.826172,52.6455061 326.700848,52.4746094 326.450195,52.4746094 C326.08561,52.4746094 325.424809,52.6512027 324.467773,53.0043945 C323.510737,53.3575864 322.565109,53.8190076 321.630859,54.3886719 C320.69661,54.9583362 320.058595,55.5621713 319.716797,56.2001953 C319.261065,56.9977253 318.685713,58.1085541 317.990723,59.5327148 C317.295732,60.9568756 316.612145,62.4094978 315.939941,63.890625 C315.267738,65.3717522 314.703778,66.6022086 314.248047,67.5820312 C313.746742,68.8352927 312.920741,69.8606731 311.77002,70.6582031 C310.619298,71.4557332 309.565434,71.8544922 308.608398,71.8544922 Z M344.633789,71.8544922 C343.859046,71.8544922 342.936203,71.638023 341.865234,71.2050781 C340.794265,70.7721333 339.854333,70.054367 339.04541,69.0517578 C338.236487,68.0491486 337.832031,66.704761 337.832031,65.0185547 C337.832031,63.6057872 338.151038,61.8398543 338.789062,59.7207031 C339.427087,57.6015519 340.429681,55.5166118 341.796875,53.4658203 C343.164069,51.3694557 344.912913,49.626309 347.043457,48.2363281 C349.174002,46.8463472 351.640611,46.1513672 354.443359,46.1513672 C355.445969,46.1513672 356.323238,46.2766915 357.075195,46.5273438 C357.827152,46.777996 358.465167,47.0514308 358.989258,47.3476562 C359.285483,47.5299488 359.564615,47.7179352 359.82666,47.9116211 C360.088706,48.105307 360.333658,48.3160796 360.561523,48.5439453 L361.757812,47.9628906 C362.099611,47.8033846 362.458494,47.6609707 362.834473,47.5356445 C363.210451,47.4103184 363.535155,47.3476562 363.808594,47.3476562 C364.674483,47.3476562 365.380857,47.5869117 365.927734,48.0654297 C366.474612,48.5439477 366.748047,49.068031 366.748047,49.6376953 C366.748047,49.8199879 366.736654,49.9453122 366.713867,50.0136719 C366.554361,50.6516959 366.263837,51.5289658 365.842285,52.6455078 C365.420734,53.7620499 364.970706,55.0038994 364.492188,56.3710938 C364.013669,57.6927149 363.609214,58.9687438 363.278809,60.1992188 C362.948403,61.4296937 362.783203,62.4436809 362.783203,63.2412109 C362.783203,63.9248081 362.897134,64.4887673 363.125,64.9331055 C363.352866,65.3774436 363.740232,65.5996094 364.287109,65.5996094 C364.94792,65.5996094 365.836583,65.21794 366.953125,64.4545898 C368.069667,63.6912397 369.220372,62.785487 370.405273,61.7373047 C371.043297,61.1676404 371.704098,60.5581087 372.387695,59.9086914 C373.071292,59.2592741 373.766273,58.5699906 374.472656,57.8408203 C374.837241,57.5445949 375.190428,57.3964844 375.532227,57.3964844 C375.987958,57.3964844 376.369627,57.6186501 376.677246,58.0629883 C376.984865,58.5073264 377.138672,59.002927 377.138672,59.5498047 C377.138672,60.1878287 376.922203,60.7233051 376.489258,61.15625 C375.577795,61.9993532 374.643559,62.8994093 373.686523,63.8564453 C372.729487,64.8134813 371.407886,65.9869722 369.72168,67.3769531 C368.217766,68.607428 366.668302,69.6612912 365.073242,70.5385742 C363.478182,71.4158573 362.04265,71.8544922 360.766602,71.8544922 C359.171542,71.8544922 358.009444,71.2335674 357.280273,69.9916992 C356.551103,68.749831 356.186523,67.4225331 356.186523,66.0097656 C356.186523,64.9843699 356.334634,64.0729207 356.630859,63.2753906 C355.69661,64.5286521 354.591478,65.8217707 353.31543,67.1547852 C352.039382,68.4877996 350.660815,69.6043249 349.179688,70.5043945 C347.69856,71.4044641 346.183276,71.8544922 344.633789,71.8544922 Z M347.368164,65.8388672 C348.097334,65.8388672 349.01448,65.3717495 350.119629,64.4375 C351.224778,63.5032505 352.290034,62.4095115 353.31543,61.15625 C354.454758,59.7890557 355.354814,58.5472061 356.015625,57.4306641 C356.676436,56.314122 357.006836,55.5621764 357.006836,55.1748047 C357.006836,54.3089149 356.505539,53.6196315 355.50293,53.1069336 C354.500321,52.5942357 353.600264,52.3378906 352.802734,52.3378906 C351.389967,52.3378906 350.051276,52.7936152 348.786621,53.7050781 C347.521966,54.616541 346.490889,55.7843353 345.693359,57.2084961 C344.895829,58.6326569 344.49707,60.1080653 344.49707,61.6347656 C344.49707,62.5234419 344.66227,63.4462843 344.992676,64.4033203 C345.323081,65.3603563 346.114903,65.8388672 347.368164,65.8388672 Z M372.695312,71.8886719 C371.874996,71.8886719 371.225588,71.6266302 370.74707,71.1025391 C370.268552,70.5784479 370.029297,69.9518266 370.029297,69.2226562 C370.029297,68.6302054 370.348304,67.5136801 370.986328,65.8730469 C371.624352,64.2324137 372.364905,62.4778739 373.208008,60.609375 C374.119471,58.6269432 375.002437,56.7015067 375.856934,54.8330078 C376.71143,52.9645089 377.38932,51.4378314 377.890625,50.2529297 C378.300783,49.2731071 378.841956,48.5439477 379.51416,48.0654297 C380.186364,47.5869117 380.852861,47.3476562 381.513672,47.3476562 C382.083336,47.3476562 382.59033,47.5584289 383.034668,47.9799805 C383.479006,48.4015321 383.701172,49.0110637 383.701172,49.8085938 C383.701172,50.3782581 383.564454,51.0276656 383.291016,51.7568359 C384.111332,51.0048791 385.005692,50.1902713 385.974121,49.3129883 C386.94255,48.4357052 388.064772,47.6894562 389.34082,47.0742188 C390.616868,46.4589813 392.109366,46.1513672 393.818359,46.1513672 C395.094407,46.1513672 396.210933,46.4817675 397.167969,47.1425781 C398.125005,47.8033887 398.649088,48.9085209 398.740234,50.4580078 C399.811203,49.3870389 401.053053,48.4015344 402.46582,47.5014648 C403.878588,46.6013952 405.587555,46.1513672 407.592773,46.1513672 C409.119474,46.1513672 410.452468,46.4988572 411.591797,47.1938477 C412.731125,47.8888381 413.300781,49.1022049 413.300781,50.8339844 C413.300781,52.2011787 412.987471,53.4999938 412.36084,54.7304688 C411.734209,55.9609437 410.999353,57.0888621 410.15625,58.1142578 C409.837238,58.5016295 409.353031,59.0712853 408.703613,59.8232422 C408.054196,60.5751991 407.461754,61.3841103 406.92627,62.25 C406.390785,63.1158897 406.123047,63.9248009 406.123047,64.6767578 C406.123047,65.1780624 406.276854,65.4970696 406.584473,65.6337891 C406.892091,65.7705085 407.296547,65.8388672 407.797852,65.8388672 C408.754888,65.8388672 409.785965,65.5597359 410.891113,65.0014648 C411.996262,64.4431938 413.090001,63.7539104 414.172363,62.9335938 C415.254725,62.1132771 416.245926,61.2701866 417.145996,60.4042969 C418.046066,59.5384071 418.780922,58.7978546 419.350586,58.1826172 C419.624025,57.8863917 419.965818,57.7382812 420.375977,57.7382812 C420.786135,57.7382812 421.156411,57.9205711 421.486816,58.2851562 C421.817222,58.6497414 421.982422,59.1282522 421.982422,59.7207031 C421.982422,60.1764346 421.845704,60.6777316 421.572266,61.2246094 C421.298827,61.7714871 420.831709,62.3069635 420.170898,62.8310547 C418.598625,64.357755 416.940927,65.8103772 415.197754,67.1889648 C413.454581,68.5675525 411.694345,69.6897743 409.916992,70.5556641 C408.13964,71.4215538 406.3851,71.8544922 404.65332,71.8544922 C402.967114,71.8544922 401.605637,71.4557332 400.568848,70.6582031 C399.532059,69.8606731 399.013672,68.5960373 399.013672,66.8642578 C399.013672,65.3147709 399.395341,63.8621487 400.158691,62.5063477 C400.922042,61.1505466 401.787918,59.8859108 402.756348,58.7124023 C403.724777,57.5388939 404.516598,56.4622445 405.131836,55.4824219 C405.359702,55.1178367 405.541992,54.7703467 405.678711,54.4399414 C405.81543,54.1095361 405.883789,53.7734392 405.883789,53.4316406 C405.883789,52.5885375 405.48503,52.1669922 404.6875,52.1669922 C403.343092,52.1669922 402.032884,52.5828409 400.756836,53.4145508 C399.480788,54.2462607 398.307297,55.3001238 397.236328,56.5761719 C396.119786,57.8750065 395.134282,59.208001 394.279785,60.5751953 C393.425289,61.9423896 392.64486,63.1842392 391.938477,64.3007812 C391.505532,65.0983113 391.0612,66.0952089 390.605469,67.2915039 C390.149737,68.487799 389.597171,69.5530552 388.947754,70.4873047 C388.298337,71.4215542 387.472336,71.8886719 386.469727,71.8886719 C385.877276,71.8886719 385.29053,71.6949889 384.709473,71.3076172 C384.128415,70.9202455 383.815104,70.4303415 383.769531,69.8378906 C383.769531,68.3567634 384.225256,66.7731204 385.136719,65.0869141 C386.048182,63.4007077 387.102045,61.7259198 388.29834,60.0625 C389.494635,58.3990802 390.514319,56.8724028 391.357422,55.4824219 C391.585288,55.1178367 391.767577,54.7703467 391.904297,54.4399414 C392.041016,54.1095361 392.109375,53.7734392 392.109375,53.4316406 C392.109375,52.5885375 391.710616,52.1669922 390.913086,52.1669922 C389.568678,52.1669922 388.25847,52.5828409 386.982422,53.4145508 C385.706374,54.2462607 384.532883,55.3001238 383.461914,56.5761719 C382.345372,57.8750065 381.359868,59.208001 380.505371,60.5751953 C379.650875,61.9423896 378.870446,63.1842392 378.164062,64.3007812 C377.731118,65.0983113 377.286786,66.0952089 376.831055,67.2915039 C376.375323,68.487799 375.822757,69.5530552 375.17334,70.4873047 C374.523923,71.4215542 373.697922,71.8886719 372.695312,71.8886719 Z" id="KayceeIngram"></path>
        </g>
    </g>
</svg>